<svg width="294" height="539" viewBox="0 0 294 539" fill="none" xmlns="http://www.w3.org/2000/svg">
<rect width="294" height="539" fill="#1E1E1E"/>
<path d="M112.189 161.336V163.836L110.689 163.336L108.689 161.336L104.689 156.336L99.1894 149.336L93.1894 141.336L90.1894 137.836L88.1894 134.836L85.1894 131.336L81.1894 125.836L79.1894 123.336L78.6894 121.836V120.836V119.336V118.336L79.1894 116.836L79.6894 114.836L80.1894 109.836L79.6894 103.836L78.6894 99.3355L77.6894 95.8355L76.6894 91.3355L78.6894 92.8355L82.6894 95.8355L91.1894 100.336L99.1894 104.836L106.189 108.336L107.689 109.336L108.689 109.836L109.689 110.836L110.189 112.336L110.689 117.336V119.336V120.836V123.336V126.336V127.336V128.836L111.189 131.336V132.336V134.836V136.836V137.836V139.336L111.689 140.836V142.336V144.336V145.836V147.336V148.336V149.336L112.189 152.836V158.336V161.336Z" fill="#333333"/>
<path d="M264.179 185.255C271.574 197.393 278.847 209.294 286.089 221.144C281.557 224.57 279.805 224.545 276.532 220.845C266.402 209.395 256.086 198.08 246.343 186.336C238.884 177.345 236.412 166.519 236.041 155.226C236.026 154.777 236.225 154.323 236.3 153.985C241.282 154.833 246.174 155.537 250.981 156.593C251.934 156.802 253.067 158.273 253.26 159.308C255.001 168.604 259.466 176.829 264.179 185.255Z" fill="#333333"/>
<path d="M30.3501 136.86C30.8544 136.708 31.1849 136.731 31.7617 136.785C36.9691 145.681 38.5661 154.897 35.4892 164.706C31.8374 176.347 25.1257 186.535 18.8392 196.921C14.6024 203.92 9.94134 210.693 5.89843 217.789C4.02181 221.083 2.34524 220.699 0 218.917C2.23448 211.026 4.839 203.335 6.53173 195.466C8.60831 185.812 9.94973 176.013 11.5595 166.269C13.5722 154.086 20.8431 144.968 30.3501 136.86Z" fill="#333333"/>
<path d="M168.151 13.6491C168.044 15.691 167.879 17.4023 167.764 19.4029C167.632 24.6121 167.606 29.545 167.163 34.4436C167.044 35.7533 165.653 36.9584 164.375 38.4162C161.843 39.8666 159.782 41.1122 157.72 42.3577C153.805 46.3707 149.889 50.3837 146.056 54.3127C142.539 50.5149 138.88 46.5643 134.861 42.3253C133.041 41.2293 131.581 40.4216 130.122 39.614C129.259 39.164 128.446 38.5277 127.522 38.3012C125.32 37.7612 124.773 36.4807 124.703 34.4182C124.448 26.8293 123.978 19.247 123.543 11.1493C123.436 10.3222 123.375 10.0081 123.314 9.69401C123.373 6.44477 123.433 3.19553 123.849 0C124.341 0.274421 124.543 0.399786 124.923 0.642443C126.695 1.94589 128.353 3.03669 130.014 4.09883C130.017 4.07016 129.957 4.07679 130.106 4.26487C131.447 4.97601 132.639 5.49907 134.067 6.17922C140.516 8.66973 146.856 8.94362 153.309 7.41781C157.945 5.10752 162.58 2.79721 167.369 0.263387C167.81 1.52937 168.312 3.01517 168.341 4.50921C168.397 7.4432 168.19 10.3818 168.151 13.6491Z" fill="#333333"/>
<path d="M204.767 40.008C207.531 39.8642 210.028 39.8146 212.86 39.6978C218.251 40.2043 223.494 40.1539 228.328 41.4685C243.028 45.4661 253.016 59.0831 253.598 75.1239C253.849 82.0542 252.864 88.8245 250.355 96.1932C242.536 87.595 232.935 83.7728 221.523 83.8731C219.222 67.2388 207.441 55.075 200.216 40.452C201.867 40.3172 203.183 40.2097 204.767 40.008Z" fill="#333333"/>
<path d="M213.179 536.529C212.488 539.199 210.425 538.166 209.625 537.177C208.026 535.198 206.33 532.899 205.895 530.528C204.502 522.933 203.752 515.233 202.591 507.597C201.305 499.144 198.123 491.238 193.71 483.897C185.337 469.968 184.446 455.075 186.54 439.669C187.77 430.618 188.942 421.559 190.536 412.604C192.823 414.824 194.715 416.944 196.643 419.301C203.655 429.297 208.58 439.891 211.083 451.493C214.341 466.595 214.657 481.883 214.15 497.2C213.836 506.682 213.002 516.148 212.629 525.629C212.487 529.251 212.977 532.895 213.179 536.529Z" fill="#333333"/>
<path d="M261.614 136.712C262.463 137.136 263.068 137.589 263.89 138.116C266.818 141.268 269.521 144.352 272.239 147.422C277.816 153.72 280.338 161.189 281.603 169.191C284.253 185.953 286.478 202.812 293.506 218.522C289.124 221.252 289.068 221.253 286.814 217.451C278.244 202.996 269.402 188.678 261.213 174.029C254.746 162.461 253.546 150.326 259.949 137.766C260.322 137.277 260.401 137.09 260.396 136.871C260.721 136.828 261.045 136.785 261.614 136.712Z" fill="#333333"/>
<path d="M175.748 150.65C167.295 148.7 158.824 146.816 150.41 144.722C149.279 144.441 147.619 143.131 147.59 142.255C147.358 135.278 147.461 128.291 147.461 120.981C149.006 120.981 150.079 120.981 151.752 121.05C153.872 121.462 155.393 121.805 156.914 122.149C163.566 125.557 170.267 128.884 176.818 132.461C177.786 132.99 178.54 134.695 178.546 135.86C178.568 140.47 178.254 145.082 177.765 150.101C176.893 150.555 176.321 150.603 175.748 150.65Z" fill="#333333"/>
<path d="M222.175 525.421C221.919 505.373 221.632 485.634 221.583 465.894C221.559 456.395 221.665 446.876 222.305 437.402C222.868 429.07 224.205 420.782 225.364 412.496C225.476 411.699 226.749 411.051 227.767 410.37C233.302 422.889 238.423 435.55 238.725 449.105C238.969 460.087 237.888 471.143 236.689 482.096C234.92 498.263 232.501 514.366 230.411 530.502C229.868 534.696 228.455 536.089 222.835 536.93C222.636 533.168 222.438 529.449 222.175 525.421Z" fill="#333333"/>
<path d="M117.542 150.419C116.335 150.363 115.128 150.308 113.662 150.241C113.662 145.588 113.653 141.197 113.665 136.807C113.672 134.383 114.593 132.539 117.06 131.447C124.491 128.156 131.851 124.718 139.311 121.491C140.84 120.83 142.685 120.835 145.224 120.384C145.224 123.276 145.228 125.811 145.223 128.345C145.215 132.745 145.12 137.146 145.227 141.543C145.278 143.611 144.532 144.529 142.32 144.762C139.602 145.048 136.926 145.683 133.659 146.29C127.905 147.748 122.723 149.083 117.542 150.419Z" fill="#333333"/>
<path d="M122.61 103.799C129.448 100.082 136.515 96.9742 145.09 96.1652C145.09 102.684 145.144 109.038 145.011 115.389C144.997 116.065 143.994 117.173 143.279 117.319C133.254 119.361 124.425 124.004 115.589 128.655C115.201 128.859 114.664 128.805 113.53 128.967C114.471 122.226 110.891 115.331 116.761 109.071C118.916 107.082 120.763 105.441 122.61 103.799Z" fill="#333333"/>
<path d="M95.6708 384.442C91.0427 379.776 88.381 374.225 87.4166 367.348C87.3279 365.399 87.2945 363.987 87.3443 362.326C89.2849 356.301 90.7765 350.389 93.0788 344.779C97.3416 334.393 102.079 324.184 106.758 313.712C108.729 309.873 110.561 306.223 112.392 302.573C112.771 302.665 113.151 302.756 113.53 302.848C114.054 304.361 114.579 305.874 115.083 307.684C115.439 309.928 115.815 311.876 116.167 314.092C116.376 315.605 116.607 316.85 116.838 318.094C117.841 328.13 119.191 338.148 119.723 348.206C120.078 354.92 119.514 361.711 118.906 368.43C118.374 374.301 115.668 379.339 110.38 383.412C105.391 386.869 100.654 387.754 95.6708 384.442Z" fill="#333333"/>
<path d="M258.483 128.579C258.43 129.673 258.355 130.436 258.318 131.484C258.267 132.303 258.176 132.837 258.031 133.885C257.816 135.426 257.655 136.453 257.494 137.48C255.949 141.358 254.628 145.336 252.8 149.089C250.639 153.525 248.141 154.578 243.423 152.635C240.19 151.304 236.77 149.493 234.541 146.996C225.224 136.558 219.185 124.569 217.464 110.793C216.435 102.551 219.34 95.0515 222.424 87.6407C222.761 86.8294 225.089 86.2456 226.381 86.402C240.025 88.0531 249.558 95.2008 254.058 107.411C256.497 114.031 257.055 121.282 258.483 128.579Z" fill="#333333"/>
<path d="M151.806 118.227C148.245 117.52 147.26 115.412 147.448 112.06C147.739 106.898 147.525 101.711 147.525 96.1013C159.929 97.8436 170.242 101.847 177.459 111.261C178.545 112.677 179.084 114.725 179.194 116.519C179.445 120.609 179.273 124.722 179.273 129.414C171.449 125.876 164.531 122.748 157.115 119.464C155.012 118.947 153.409 118.587 151.806 118.227Z" fill="#333333"/>
<path d="M177.984 170.699C178.219 173.775 176.872 175.085 174.035 174.48C168.597 173.32 163.197 172 157.503 170.672C145.744 164.818 147.991 168.453 147.708 155.521C147.651 152.94 147.699 150.358 147.699 147.319C157.637 147.572 166.455 150.598 175.73 153.809C176.767 154.26 177.341 154.552 177.915 154.845C177.917 160.02 177.918 165.195 177.984 170.699Z" fill="#333333"/>
<path d="M201.313 378.752C198.244 383.205 194.828 387.174 188.39 386.34C186.896 386.147 185.457 385.562 183.707 385.141C173.671 376.58 172.458 365.387 172.777 353.749C172.973 346.642 172.86 339.491 173.688 332.445C174.776 323.174 176.653 313.987 178.399 304.235C181.044 301.262 181.3 304.114 181.756 305.105C188.6 319.949 195.42 334.805 202.061 349.733C206.234 359.115 207.277 368.599 201.846 377.974C201.846 377.974 201.905 377.986 201.723 378.032C201.466 378.303 201.389 378.527 201.313 378.752Z" fill="#333333"/>
<path d="M79.6326 513.497C79.452 500.901 78.9416 488.299 79.1763 475.71C79.4548 460.768 81.3317 445.92 88.5187 432.404C92.255 425.378 97.5135 419.087 102.243 412.265C103.028 416.581 103.558 421.109 104.298 425.606C106.445 438.66 108.62 451.748 106.093 464.937C105.164 469.785 103.785 474.826 101.302 479.084C92.8551 493.566 89.1224 509.109 88.1953 525.456C88.0748 527.582 87.7417 529.724 87.2271 531.796C86.3776 535.217 84.0294 537.287 80.0448 538.15C80.2573 535.996 80.4475 534.069 80.6404 531.574C80.598 530.468 80.5529 529.928 80.5591 529.063C80.3211 524.436 80.0318 520.135 79.7963 515.602C79.7776 514.746 79.7051 514.122 79.6326 513.497Z" fill="#333333"/>
<path d="M52.8239 154.405C54.2063 154.152 55.2801 153.976 56.7282 153.737C57.0639 160.778 55.4126 167.19 53.2941 173.511C50.8276 180.87 46.4752 187.188 41.2174 193.001C32.9196 202.175 24.7323 211.441 16.3882 220.577C12.9531 224.338 11.8726 224.325 6.85126 221.237C9.83587 216.256 12.8716 211.26 15.8369 206.227C21.8704 195.985 28.1542 185.863 33.7501 175.408C36.3758 170.502 37.8023 164.98 39.4486 159.646C40.0605 157.664 40.7517 156.694 43.0283 156.422C46.2253 156.04 49.3561 155.153 52.8239 154.405Z" fill="#333333"/>
<path d="M134.593 171.048C129.419 172.201 124.264 173.442 119.063 174.472C115.923 175.094 114.107 174.154 114.572 170.575C114.89 168.127 114.632 165.611 114.647 162.538C114.599 160.212 114.533 158.475 114.468 156.737C115.307 155.686 116.147 154.635 117.476 153.387C123.289 151.692 128.613 150.195 133.936 148.697C137.457 148.178 140.978 147.66 145.026 147.064C145.026 153.38 145.026 159.245 144.748 165.53C141.178 167.65 137.885 169.349 134.593 171.048Z" fill="#333333"/>
<path d="M73.6495 39.6842C75.7277 39.6542 77.5051 39.6888 79.6106 39.6653C83.8402 39.8408 87.7417 40.0744 92.172 40.3396C89.8528 44.2744 87.8084 47.743 85.6819 51.4571C81.3974 59.3516 75.9116 66.6379 73.3864 74.7611C71.2481 81.6393 68.6576 84.6351 61.0271 85.1572C53.6547 85.6616 47.7123 90.0983 42.3646 96.1585C37.9984 86.2114 37.191 76.6135 39.5139 66.3918C40.7048 63.3759 41.6955 60.5594 43.1239 57.9619C49.5001 46.3671 59.8966 40.7249 73.6495 39.6842Z" fill="#333333"/>
<path d="M82.4122 368.046C80.4817 376.533 77.0579 384.095 68.2146 388.456C60.0531 354.528 54.1989 320.562 62.6062 285.854C66.0943 271.454 71.4791 257.867 79.7997 244.845C81.1659 242.935 82.1918 241.363 83.4335 239.966C83.6558 239.716 84.7704 240.186 85.495 240.319C85.5168 240.313 85.442 240.249 85.254 240.508C84.4183 243.056 83.7425 245.338 83.127 247.635C75.0311 277.849 71.6087 308.232 78.3722 339.208C80.4398 348.678 81.1049 358.425 82.4122 368.046Z" fill="#333333"/>
<path d="M171.729 21.5714C171.887 20.3699 172.072 19.4952 172.314 18.3482C173.262 18.5935 174.119 18.8153 175.233 19.0673C183.653 24.1691 191.817 29.2406 199.981 34.312C199.814 34.7549 199.647 35.1978 199.48 35.6406C190.162 35.6406 180.843 35.6406 170.96 35.6406C171.213 31.2803 171.485 26.5893 171.729 21.5714Z" fill="#333333"/>
<path d="M103.484 313.674C97.4161 327.587 91.3477 341.499 85.0981 355.827C83.6259 348.715 82.1276 341.74 80.7435 334.745C74.7277 304.34 77.2953 274.384 85.9146 244.733C86.345 243.253 86.0886 241.59 85.797 240.131C85.442 240.249 85.5169 240.313 85.495 240.319C86.5348 239.067 87.5966 237.81 88.6835 236.274C88.7699 235.88 88.8313 235.765 89.0076 235.303C89.225 234.589 89.3274 234.223 89.4298 233.857C89.4947 233.742 89.5597 233.627 89.7462 233.161C89.9821 232.446 90.0965 232.081 90.211 231.715C91.3813 229.133 92.5516 226.552 93.7219 223.97C94.0849 223.948 94.4478 223.926 94.8108 223.904C99.0867 242.75 103.363 261.595 107.74 280.987C108.512 284.544 109.1 287.573 109.871 290.559C110.889 294.5 110.568 298.179 108.651 301.894C106.683 305.706 105.187 309.738 103.484 313.674Z" fill="#333333"/>
<path d="M102.227 27.629C104.065 26.4703 105.737 25.4978 107.556 24.342C111.537 22.1698 115.371 20.1809 119.987 17.7865C120.455 24.3433 120.863 30.0593 121.297 36.1347C119.906 36.1347 118.971 36.1347 117.391 36.0919C114.459 35.9247 112.171 35.8004 109.547 35.606C106.691 35.5789 104.171 35.6217 101.341 35.6058C99.986 35.6128 98.9407 35.6785 97.8954 35.7442C96.1662 35.6651 94.4371 35.586 91.4797 35.4508C95.5371 32.5232 98.7996 30.1692 102.227 27.629Z" fill="#333333"/>
<path d="M183.87 286.965C184.185 285.206 184.51 283.735 184.817 281.978C187.764 268.479 190.725 255.264 193.697 242.051C194.871 236.832 196.013 231.604 197.32 226.415C197.52 225.623 198.541 225.018 199.391 224.466C200.573 226.833 201.547 229.061 202.674 231.499C211.386 256.33 216.3 281.505 215.318 307.547C214.726 323.257 211.707 338.638 208.114 354.211C207.969 354.803 207.815 355.114 207.664 355.418C207.418 355.369 207.071 355.383 207.027 355.278C199.859 338.509 192.995 321.615 185.419 305.017C182.674 299.002 181.773 293.385 183.87 286.965Z" fill="#333333"/>
<path d="M66.1788 410.212C66.6493 410.58 66.8479 410.942 67.192 411.658C67.512 412.365 67.6864 412.719 67.8609 413.074C72.4804 447.755 71.6165 482.587 70.9922 517.411C70.9113 521.925 70.6061 526.435 70.396 531.538C70.3913 533.119 70.3953 534.109 70.3024 535.413C69.9127 536.331 69.6199 536.934 69.3271 537.538C64.43 536.107 62.7663 533.014 62.2033 528.091C59.9471 508.364 57.1125 488.696 54.4523 469.011C51.9987 450.855 55.2928 433.498 62.4177 416.683C63.3673 414.442 64.7335 412.361 66.1788 410.212Z" fill="#333333"/>
<path d="M210.84 241.195C215.878 251.32 221.882 261.122 225.761 271.636C235.283 297.443 236.572 324.151 232.27 351.065C230.268 363.593 227.387 375.994 224.406 388.549C221.366 386.531 218.824 384.416 216.177 382.069C214.634 379.021 213.03 376.271 211.792 373.379C209.256 367.449 210.389 361.3 211.054 354.954C213.107 342.311 215.315 329.949 216.878 317.514C217.786 310.293 218.191 302.935 217.893 295.673C217.161 277.814 213.444 260.376 208.589 243.147C208.215 241.82 208.141 240.417 207.927 239.05C208.189 238.993 208.451 238.936 208.713 238.878C209.422 239.651 210.131 240.423 210.84 241.195Z" fill="#333333"/>
<path d="M88.4469 52.1897C90.563 48.882 92.5221 45.7736 94.6364 42.7643C95.335 41.7701 96.434 41.0317 97.8525 40.1915C99.0013 40.1891 99.6476 40.1715 100.453 40.2049C100.611 40.2559 100.937 40.179 101.204 40.2536C105.525 40.7912 109.577 41.2542 113.629 41.7171C118.913 42.714 124.196 43.7108 129.944 44.8448C130.806 45.0727 131.204 45.1636 131.602 45.2545C140.886 49.4137 144.035 57.3823 144.826 66.1676C145.473 73.3577 144.77 80.656 144.717 87.9067C144.698 90.634 143.017 92.1321 140.526 92.4301C133.32 93.2922 126.921 96.0504 120.341 99.7436C118.473 101.019 117.026 102.042 115.578 103.065C111.943 106.334 108.053 105.902 104.053 103.78C97.4787 100.293 90.9074 96.8023 84.1006 93.2338C82.3995 91.7234 80.7649 90.4154 79.4965 88.8394C75.0432 83.3064 73.8466 77.2126 77.3137 70.9002C80.7596 64.6263 84.6532 58.5759 88.4469 52.1897Z" fill="#333333"/>
<path d="M193.748 39.9194C194.726 40.548 196.06 40.9659 196.627 41.8375C202.599 51.0206 208.781 60.1017 214.235 69.5624C219.336 78.4117 217.924 86.0376 209.324 91.8912C201.697 97.0829 193.061 100.974 184.655 105.033C183.148 105.76 179.997 105.175 178.616 104.059C170.261 97.3055 160.457 93.8624 149.997 91.6188C149.067 91.4193 147.632 90.3348 147.634 89.6653C147.673 78.8057 145.325 67.778 149.637 57.186C151.55 52.4876 153.885 47.9983 159.713 45.7283C162.414 44.9404 164.647 44.3407 166.879 43.741C173.885 42.6459 180.891 41.5507 188.522 40.3999C190.681 40.2026 192.214 40.061 193.748 39.9194Z" fill="#333333"/>
<path d="M69.1894 86.3355L70.1894 86.8355L71.1894 88.3355L71.6894 89.8355L72.1894 91.3355L72.6894 93.3355L74.1894 95.8355L74.6894 98.3355L75.1894 101.836L75.6894 105.836V108.836V111.836L75.1894 114.836L74.6894 117.836L73.6894 121.336L72.1894 124.836L71.1894 127.836L69.6894 130.836L68.1894 133.336L66.6894 135.836L64.1894 139.336L61.6894 142.836L59.1894 146.336L56.6894 148.336L54.1894 150.336L52.6894 150.836L51.6894 151.336L50.1894 152.336L48.6894 152.836H47.1894H45.6894L44.1894 152.336L43.1894 151.336L42.1894 150.336L41.1894 148.336L40.1894 146.336L39.1894 144.336L38.1894 141.336L37.1894 139.336L36.6894 136.336L36.1894 134.336L35.6894 133.336V132.836V132.336V131.336V130.336V128.336V126.836V125.836V124.336V121.836L36.1894 118.336L37.1894 114.336L37.6894 112.336L38.6894 109.836L39.6894 107.836L40.6894 105.836L41.6894 103.836L42.6894 101.836L43.6894 100.336L44.1894 99.3355L45.1894 98.3355L46.1894 97.3355L48.1894 95.3355L49.6894 93.8355L51.1894 92.8355L53.6894 91.3355L55.6894 90.3355L58.1894 89.3355L61.6894 88.3355L65.1894 87.3355L67.1894 86.8355L69.1894 86.3355Z" fill="#333333"/>
<path d="M183.689 162.336L180.689 162.836L181.189 158.836V152.336L181.689 145.336V138.336V133.336L182.189 124.336V117.336V113.836V112.336L182.689 111.336L183.189 110.336L184.689 109.336L196.689 102.336L214.689 91.8355V92.3355V92.8355L213.689 97.8355L212.689 101.836V104.836V111.336V112.836L213.189 114.336L213.689 115.836L214.189 118.336V121.336L213.689 122.836L212.689 124.836L211.689 126.836L209.189 129.836L206.189 133.336L201.689 138.836L198.189 143.336L191.689 151.336L187.689 156.336L183.689 162.336Z" fill="#333333"/>
<path d="M140.689 171.836L145.689 168.836L150.689 171.836L157.689 174.836L164.189 176.336L174.689 178.836V181.336L174.189 183.336L173.189 186.336L172.189 189.336L171.689 191.836L170.189 196.836L168.689 201.836L167.689 205.336L166.189 209.836L164.689 214.836L163.189 220.336L161.689 226.336L159.689 233.336L157.689 240.336L155.689 246.836L154.689 250.336L152.689 255.836L151.689 258.336L149.689 259.836L148.689 260.336L147.189 260.836H146.189H145.189L144.189 260.336L143.189 259.836L141.689 258.336L140.689 257.336L139.689 254.836L138.189 250.836L137.189 248.336L136.189 244.836L134.189 237.336L132.689 231.336L131.689 228.336L130.189 222.836L128.689 217.336L127.189 212.336L125.189 205.836L124.189 201.836L123.689 199.336L122.189 194.836L120.189 187.836L118.689 183.336L117.189 178.836H117.689L121.689 177.836L128.689 176.336L133.689 174.836L135.689 174.336L140.689 171.836Z" fill="#333333"/>
<path d="M101.689 162.836L101.189 158.336L100.689 154.836L111.189 165.836L112.689 174.836L114.189 181.336L117.689 193.336L121.189 203.836L124.689 215.836L128.189 227.336L131.189 237.336L134.189 249.336H133.689L130.189 244.836L125.189 238.336L113.689 224.836L103.689 213.336L99.1894 209.336L98.6894 207.336V206.336V204.336L99.1894 199.836L99.6894 192.836L101.189 177.336L101.689 162.836Z" fill="#333333"/>
<path d="M159.189 249.836L158.189 249.336L161.189 239.836L168.189 216.336L175.689 190.836L179.689 173.836L181.189 164.836L191.689 155.336V156.836L191.189 174.336L191.689 176.336L192.189 183.336L192.689 192.336L193.189 195.336V199.836V204.336L192.689 209.336L192.189 210.336L186.189 216.836L172.689 233.336L159.189 249.836Z" fill="#333333"/>
<path d="M108.689 258.836L98.6894 217.836L105.189 221.836L115.689 232.336L122.189 238.336L130.689 250.836L135.189 258.336L136.689 260.836L137.189 263.336L137.689 270.336L137.189 277.336L136.689 283.336L136.189 287.836L135.189 295.836L133.689 303.836L129.189 320.836L123.689 337.836V334.336L122.189 322.836L121.689 314.836L120.689 309.336L119.689 304.836L118.189 297.836L117.189 292.836L115.689 286.836L112.189 273.336L108.689 258.836Z" fill="#333333"/>
<path d="M167.689 338.336L166.189 331.336L165.689 328.836L162.689 316.336L159.689 303.836L157.189 293.336L156.689 290.836L156.189 284.836L155.689 278.336L155.189 269.336L155.689 262.836L157.689 257.336L161.689 249.836L167.689 241.836L178.189 229.836L193.189 217.336V217.836V222.836L192.689 225.336L190.689 233.336L185.689 252.336L182.189 265.836L178.689 278.336L177.189 285.336L175.189 292.336L174.189 300.336L173.689 302.836L171.189 313.336L170.189 327.336L169.689 338.336H167.689Z" fill="#333333"/>
</svg>
