<svg xmlns="http://www.w3.org/2000/svg" viewBox="0 0 24 24" fill="none" aria-hidden="true">
  <circle cx="12" cy="12" r="10" fill="#E60023"/>
  <path d="M12.4 6.2c-3.2 0-4.8 2.3-4.8 4.2 0 1.2.5 2.2 1.5 2.6.2.1.3 0 .4-.2l.2-.9c0-.1 0-.2-.1-.3-.3-.4-.4-.8-.4-1.4 0-1.8 1.4-3.4 3.6-3.4 2 0 3.1 1.2 3.1 2.8 0 2.1-.9 3.9-2.3 3.9-.8 0-1.3-.6-1.1-1.4.2-.9.6-1.8.6-2.5 0-.6-.3-1.1-1-1.1-.8 0-1.4.8-1.4 1.9 0 .7.2 1.2.2 1.2l-1 4.1c-.3 1.2 0 2.6 0 2.7 0 .1.1.2.2.1.1-.1 1.1-1.3 1.4-2.5l.4-1.5c.2.4.9.8 1.7.8 2.3 0 3.9-2.1 3.9-5 0-2.2-1.9-4.2-4.7-4.2z" fill="#fff"/>
</svg>
