<svg width="411" height="804" viewBox="0 0 411 804" fill="none" xmlns="http://www.w3.org/2000/svg">
<rect width="411" height="804" fill="#1E1E1E"/>
<path fill-rule="evenodd" clip-rule="evenodd" d="M73.7681 228.498L74.7681 214.998L74.2681 221.498L73.7681 228.498Z" fill="#333333"/>
<path d="M74.7681 214.998L73.7681 228.498L80.7681 223.998L90.2681 212.998L98.2681 198.498L101.268 177.998V167.998L98.2681 154.498L95.2681 140.498L94.7681 136.998L92.7681 134.498L91.2681 133.498L89.2681 132.498H86.7681L83.2681 132.998L81.2681 133.498L78.2681 134.498L74.2681 136.498L68.2681 140.498L64.7681 143.998L61.2681 147.998L58.7681 151.998L56.7681 155.498L54.7681 160.498L52.7681 165.998L51.7681 169.998L50.2681 176.498L49.2681 183.498L48.7681 187.998L48.2681 194.998L47.7681 202.998V206.998L47.2681 208.498L47.7681 210.998L48.2681 213.998L52.2681 208.998L53.7681 206.998L56.2681 202.998L59.7681 198.498L64.7681 191.498L65.7681 190.998L67.7681 190.498L70.2681 189.498L71.2681 189.998L72.2681 191.998L73.7681 196.998L74.7681 201.498L75.2681 208.998L74.7681 214.998Z" fill="#333333"/>
<path d="M276.286 690.075C268.73 695.766 263.957 694.993 258.483 687.109C251.208 676.63 247.524 664.732 248.372 652.257C249.517 635.394 252.261 618.639 254.443 601.082C256.392 593.882 258.217 587.437 260.247 580.71C265.773 573.596 271.094 566.765 276.408 560.405C276.394 576.685 276.095 592.498 276.451 608.296C276.886 627.656 279.575 646.747 285.368 665.29C285.805 666.69 287.736 667.624 288.973 668.775C289.248 667.202 289.953 665.565 289.731 664.065C287.352 647.954 284.422 631.915 282.437 615.758C279.627 592.888 280.507 569.929 282.347 546.711C283.28 546.708 284.272 546.785 284.729 547.32C286.939 549.907 289.005 552.617 291.122 555.283C291.978 556.495 292.64 557.927 293.72 558.886C311.373 574.564 317.011 596.331 323.247 617.668C329.442 638.863 328.332 660.469 325.235 682.013C323.965 690.85 316.886 694.286 309.604 689.115C303.993 685.131 299.226 679.845 294.511 674.743C289.238 669.037 287.985 669.028 284.569 676.054C284.206 676.802 283.832 677.545 283.166 678.889C280.674 683.018 278.48 686.546 276.286 690.075Z" fill="#333333"/>
<path d="M209.017 344.999C214.435 327.249 225.896 314.924 243.009 307.223C248.024 305.732 252.779 304.46 258.273 303.085C259.772 302.839 260.532 302.695 261.292 302.551C264.552 302.712 267.812 302.873 271.645 303.062C270.903 305.904 270.391 308.136 269.738 310.325C263.73 330.471 268.261 348.063 282.563 363.273C284.838 365.693 286.919 368.546 289.687 370.201C296.324 374.172 297.288 379.738 295.073 386.318C292.598 393.669 289.764 400.9 286.708 408.718C284.537 411.464 282.745 413.674 280.707 415.956C280.246 416.282 280.03 416.538 279.525 416.883C278.445 417.581 277.655 418.189 276.864 418.798C258.319 426.559 240.454 424.222 224.002 413.633C218.427 410.045 214.765 403.485 209.929 397.615C205.456 379.678 207.066 362.341 209.017 344.999Z" fill="#333333"/>
<path d="M160.093 674.24C158.198 678.295 156.544 682.119 154.389 685.635C147.924 696.183 141.863 696.609 133.592 687.126C133.295 686.968 133.343 686.959 133.251 686.62C130.231 681.374 127.302 676.467 124.121 671.329C122.316 671.686 120.765 672.274 118.922 673.033C115.874 676.477 113.116 679.75 110.063 683.161C108.252 684.806 106.734 686.313 105.217 687.821C104.035 688.42 102.865 689.045 101.668 689.615C93.8613 693.332 88.6772 690.755 87.2175 682.349C81.3845 648.758 85.6205 616.449 99.6576 585.405C101.432 581.481 103.252 577.579 105.171 573.335C111.667 565.591 118.045 558.179 124.824 550.261C126.243 548.366 127.26 546.977 128.679 545.739C129.453 547.485 130.122 549.075 130.148 550.675C130.397 566.309 131.692 582.038 130.436 597.557C128.616 620.066 124.909 642.421 122.098 664.853C121.946 666.064 122.624 667.38 122.916 668.647C124.015 667.724 125.665 667.011 126.111 665.84C127.468 662.277 128.502 658.573 129.41 654.861C135.598 629.572 136.268 603.824 135.74 577.974C135.617 571.944 135.722 565.91 135.722 559.877C136.115 559.677 136.508 559.477 136.9 559.277C142.347 567.521 147.794 575.766 153.241 584.401C154.015 587.533 154.789 590.275 155.563 593.371C156.076 595.499 156.59 597.271 157.103 599.044C158.994 610.995 161.231 622.904 162.683 634.908C164.267 647.99 164.434 661.113 160.093 674.24Z" fill="#333333"/>
<path d="M123.59 797.275C122.126 767.274 129.39 738.815 135.64 710.207C136.455 706.476 136.881 702.661 137.433 698.458C141.253 697.561 145.127 697.09 149.582 696.548C147.235 703.904 144.979 710.615 142.95 717.393C135.05 743.774 129.141 770.487 129.377 798.252C129.39 799.864 127.844 801.489 127.024 803.108C125.93 801.274 124.837 799.439 123.59 797.275Z" fill="#333333"/>
<path d="M305.312 544.139C305.596 547.495 305.88 550.85 306.28 554.603C306.284 556.942 306.173 558.884 306.062 560.827C305.642 561.121 305.221 561.415 304.8 561.709C301.86 557.823 298.921 553.938 295.62 549.514C279.157 518.933 265.885 487.841 260.061 453.99C259.647 445.617 259.233 437.244 258.84 429.287C266.179 427.308 272.531 425.594 279.537 423.621C282.224 423.557 284.257 423.753 286.289 423.949C296.01 429.568 297.77 439.365 299.139 449.151C300.012 455.393 300.047 461.752 300.469 468.981C300.491 472.896 300.394 475.893 300.528 478.88C301.299 495.959 302.125 513.036 302.895 530.55C303.765 535.249 304.672 539.51 305.514 543.822C305.449 543.872 305.312 544.139 305.312 544.139Z" fill="#333333"/>
<path d="M288.416 800.989C288.416 800.989 288.162 801.312 288.159 801.518C284.608 803.487 283.316 802.491 283.108 798.052C282.72 789.773 282.741 781.436 281.712 773.233C278.748 749.594 272.494 726.709 264.871 704.179C264.133 701.999 263.463 699.796 262.796 697.711C266.594 697.143 270.075 696.581 273.572 696.162C273.937 696.119 274.404 696.932 274.987 697.69C277.339 709.774 279.253 721.576 281.774 733.246C286.387 754.595 290.558 775.957 288.838 798.657C288.601 799.886 288.508 800.437 288.416 800.989Z" fill="#333333"/>
<path d="M101.186 696.574C102.462 715.244 103.708 733.487 104.779 751.741C105.684 767.174 106.385 782.618 107.212 798.525C106.227 799.279 104.454 800.03 104.301 799.783C102.499 796.855 99.8919 793.914 99.4772 790.719C95.4949 760.04 91.8886 729.313 88.1964 698.597C88.0218 697.144 88.0523 695.666 88.0094 694.698C92.0417 694.698 95.7475 694.638 99.4471 694.763C100.007 694.782 100.537 695.667 101.186 696.574Z" fill="#333333"/>
<path d="M144.265 160.307C126.223 163.671 114.043 154.274 104.282 141.019C95.75 129.432 96.2796 128.653 107.26 119.619C119.187 109.806 131.068 99.9373 144.013 89.2294C149.905 108.093 156.53 125.72 155.495 145.867C154.29 149.444 153.22 152.204 151.881 155.095C150.82 156.117 150.027 157.008 148.902 157.991C147.134 158.824 145.699 159.565 144.265 160.307Z" fill="#333333"/>
<path d="M133.023 423.66C137.907 424.969 142.725 426.745 147.694 427.435C151.575 427.973 153.315 429.36 152.99 434.038C152.74 453.01 149.313 470.601 143.135 487.615C138.38 500.71 133.153 513.634 127.897 526.848C127.258 528.04 126.858 529.019 126.283 530.217C125.908 530.956 125.709 531.474 125.303 532.283C122.8 537.039 120.505 541.505 118.21 545.97C114.175 551.222 111.668 557.754 106.022 561.659C105.518 561.483 105.014 561.308 104.51 561.133C104.816 556.372 104.382 551.419 105.559 546.884C110.446 528.038 110.385 508.792 111.087 489.575C111.644 474.317 112.527 459.071 113.417 443.1C113.783 441.247 113.998 440.113 114.388 438.685C115.471 436.263 116.379 434.135 117.276 432.003C117.266 432 117.28 432.018 117.526 431.833C118.292 430.771 118.81 429.895 119.598 428.877C120.67 427.829 121.472 426.923 122.579 425.939C123.731 425.258 124.579 424.656 125.807 424.022C128.465 423.88 130.744 423.77 133.023 423.66Z" fill="#333333"/>
<path d="M242.415 538.002C241.908 531.308 241.401 524.615 240.896 517.106C240.814 515.527 240.729 514.764 240.758 513.544C242.051 498.378 243.099 483.657 244.466 468.965C245.073 462.443 246.324 455.981 247.283 449.326C247.285 448.937 247.282 448.715 247.672 448.472C248.402 446.96 248.739 445.469 249.227 443.643C249.49 442.587 249.6 441.865 249.861 440.905C250.061 440.112 250.109 439.557 250.329 438.695C250.729 437.25 250.957 436.112 251.185 434.973C253.097 433.017 251.281 428.338 256.715 428.149C256.715 436.733 256.715 445.064 256.82 454.181C258.839 475.433 266.425 494.213 274.567 512.74C279.515 524 281.336 535.179 277.131 547.296C276.035 549.675 275.164 551.761 274.064 554.04C267.978 560.968 262.121 567.704 255.88 574.409C253.329 571.962 251.162 569.544 248.995 567.127C248.145 564.324 247.295 561.522 246.308 557.974C245.425 554.074 244.68 550.92 243.941 547.347C243.638 545.282 243.328 543.636 243.054 541.737C243.028 541.325 242.966 541.167 242.96 540.701C242.815 539.596 242.615 538.799 242.415 538.002Z" fill="#333333"/>
<path d="M254.304 145.984C254.294 142.294 254.283 138.603 254.349 134.083C258.006 119.157 261.588 105.061 265.169 90.9657C266.581 91.3588 268.316 91.3561 269.355 92.205C282.481 102.928 295.476 113.811 308.581 124.559C311.662 127.086 311.891 129.66 310.442 133.283C304.254 148.765 287.442 160.819 270.342 161.067C267.58 160.543 265.617 160.071 263.414 159.363C260.554 156.078 257.936 153.028 255.317 149.979C255.322 149.807 255.327 149.634 255.234 148.912C254.859 147.57 254.582 146.777 254.304 145.984Z" fill="#333333"/>
<path d="M199.198 313.963C198.479 315.96 197.76 317.956 196.737 320.797C194.817 319.3 193.38 318.143 191.904 317.038C185.301 312.098 178.918 306.816 172.01 302.344C165.493 298.125 164.391 293.942 165.642 285.993C169.627 260.663 183.089 239.561 194.818 217.642C196.345 214.788 197.792 211.892 200.13 209.152C202.51 237.855 202.611 266.448 201.154 295.85C201.136 297.077 201.163 297.521 201.051 298.313C200.785 300.437 200.658 302.211 200.41 304.385C199.925 307.844 199.561 310.904 199.198 313.963Z" fill="#333333"/>
<path d="M240.576 301.815C231.7 307.711 223.118 313.372 214.103 319.319C213.467 317.396 212.521 314.53 211.438 311.066C211.234 310.299 211.168 310.132 211.135 309.598C210.886 307.812 210.605 306.392 210.366 304.595C210.281 303.473 210.153 302.728 210.026 301.983C209.119 291.609 207.547 281.241 207.451 270.859C207.286 253.087 208.008 235.306 208.453 217.531C208.518 214.966 209.113 212.414 209.462 209.857C210.031 209.708 210.6 209.559 211.169 209.41C219.607 225.946 228.044 242.482 236.718 259.295C241.146 271.052 244.091 282.776 244.608 295.072C244.745 298.32 244.223 300.612 240.576 301.815Z" fill="#333333"/>
<path d="M94.8492 73.1774C112.348 69.3798 127.281 74.1469 141.75 84.605C137.765 88.2306 134.452 91.4563 130.92 94.4213C118.939 104.477 106.914 114.481 94.8195 124.399C92.9275 125.951 90.7262 127.585 88.4262 128.099C78.8248 130.244 70.1128 134.016 62.8683 140.958C52.7382 117.09 61.986 82.5939 94.8492 73.1774Z" fill="#333333"/>
<path d="M209.376 89.4509C209.677 87.5778 210.015 86.1589 210.532 84.0959C211.577 81.3079 212.444 79.164 213.311 77.0201C213.311 77.0201 213.287 76.9977 213.288 77.0142C215.561 77.0845 217.881 76.8589 220.098 77.2381C233.316 79.4996 246.511 81.9006 260.029 84.3113C259.681 86.0517 259.164 88.6325 258.489 91.9698C255.455 106.153 252.578 119.58 249.701 133.007C249.555 133.442 249.409 133.877 249.129 134.882C248.879 135.968 248.764 136.484 248.649 137C242.986 155.409 235.762 173.096 223.754 188.391C219.519 193.786 214.605 198.649 209.091 203.324C206.561 165.201 206.555 127.548 209.376 89.4509Z" fill="#333333"/>
<path d="M297.048 372.482C273.455 354.989 263.736 329.394 275.133 303.438C278.103 306.59 281.577 308.936 283.18 312.201C292.215 330.604 297.499 350.075 298.272 370.653C298.297 371.302 297.704 371.974 297.048 372.482Z" fill="#333333"/>
<path d="M239.487 257.266C234.774 248.315 230.409 239.567 225.775 230.963C222.075 224.092 217.917 217.466 214.278 210.564C213.582 209.245 213.653 206.476 214.567 205.512C225.75 193.727 235.117 180.713 242.293 166.123C242.862 164.966 243.82 163.999 245.22 163.028C247.978 163.948 250.113 164.783 252.555 165.778C253.32 165.985 253.778 166.031 254.444 166.258C255.188 166.537 255.723 166.633 256.575 166.863C257.349 167.003 257.805 167.009 258.571 167.176C260.03 167.445 261.18 167.553 262.745 167.77C264.869 167.795 266.578 167.71 268.286 167.625C286.092 166.02 298.238 155.28 309.887 142.451C309.523 144.742 309.08 147.025 308.807 149.327C307.788 157.916 306.306 166.493 306.013 175.11C305.797 181.5 304.568 187.327 301.32 192.698C291.756 208.513 281.786 224.091 272.559 240.098C266.338 250.891 260.497 261.997 255.668 273.46C252.898 280.035 252.524 287.612 250.987 294.719C250.718 295.96 250.024 297.109 248.777 298.06C247.789 283.837 245.377 270.338 239.487 257.266Z" fill="#333333"/>
<path d="M109.737 442.83C109.403 451.8 108.533 460.788 108.841 469.735C109.635 492.782 108.214 515.676 105.302 538.511C105.205 539.274 104.947 540.017 104.609 541.41C103.563 540.287 102.535 539.706 102.411 538.972C100.304 526.555 98.5692 514.069 96.2401 501.695C90.2153 469.686 93.6851 438.389 102.59 407.405C105.252 398.144 107.574 388.787 110.107 379.265C111.541 386.202 113.119 393.079 114.336 400.018C115.04 404.03 115.161 408.144 115.396 412.972C114.196 419.131 113.146 424.531 111.892 430.237C111.264 433.028 110.839 435.512 110.28 438.384C110.01 440.124 109.873 441.477 109.737 442.83Z" fill="#333333"/>
<path d="M68.3214 243.989C69.7974 242.247 71.2679 240.5 72.7511 238.764C73.9924 237.312 75.2485 235.871 76.9885 233.858C80.6825 240.357 80.8826 246.51 79.805 252.81C77.0253 269.063 68.4641 282.417 58.4684 295.037C47.4349 308.967 36.41 322.904 25.3588 336.82C24.8976 337.401 24.2084 337.801 23.6254 338.285C23.2179 338.056 22.8104 337.828 22.4028 337.599C27.798 326.021 33.1931 314.442 38.8918 302.236C45.1617 289.396 51.1281 277.184 57.3053 264.697C60.4199 259.279 63.3237 254.135 66.4885 248.64C66.5956 247.862 66.4417 247.436 66.2846 247.001C66.2815 246.993 66.2998 246.99 66.6477 247.213C67.0818 246.967 67.1681 246.497 67.2709 246.02C67.2874 246.013 67.2918 245.977 67.6996 245.986C68.1613 245.34 68.2152 244.684 68.2848 244.022C68.3005 244.015 68.3214 243.989 68.3214 243.989Z" fill="#333333"/>
<path d="M67.2605 239.671C67.3392 240.955 67.4179 242.238 67.909 243.755C68.3214 243.989 68.3005 244.015 67.8203 243.894C67.324 244.508 67.3079 245.243 67.2918 245.977C67.2918 245.977 67.2874 246.013 66.9152 245.785C66.4619 246.034 66.3809 246.512 66.2999 246.99C66.2999 246.99 66.2815 246.993 66.0266 246.795C65.5528 246.959 65.3339 247.322 64.8634 247.925C61.8119 253.403 59.0121 258.641 55.9617 264.117C49.6069 276.906 43.5027 289.456 37.3986 302.007C31.7777 313.439 26.1568 324.871 20.5387 336.298C12.6715 332.539 13.2746 332.701 16.4619 325.296C22.5529 311.145 27.8357 296.645 33.6958 281.612C37.388 268.288 40.8383 255.643 44.2887 242.998C44.8874 241.07 45.4861 239.142 46.5107 237.028C47.5304 238.217 47.8163 239.883 48.7844 240.9C50.5967 242.805 53.0444 245.936 54.7962 245.674C58.118 245.177 61.1352 242.644 64.279 240.958C64.279 240.958 64.2662 240.998 64.4972 241.328C65.2543 241.099 65.7803 240.54 66.3064 239.98C66.3064 239.98 66.2849 240.013 66.5633 240.058C66.9812 239.959 67.1209 239.815 67.2605 239.671Z" fill="#333333"/>
<path d="M32.2792 280.003C25.9579 295.254 19.9008 310.622 13.1944 325.702C10.2281 332.372 5.99959 333.616 0 331.32C2.43716 324.693 5.54872 318.227 7.16139 311.407C9.99284 299.432 11.6918 287.194 14.2733 275.154C16.2924 265.737 18.4208 256.286 21.4173 247.151C25.372 235.095 33.7687 226.067 43.4182 218.076C46.1043 222.443 45.9415 225.638 42.1853 242.956C38.7958 255.808 35.5375 267.905 32.2792 280.003Z" fill="#333333"/>
<path d="M133.233 544.012C132.885 541.924 132.538 539.837 132.127 537.09C131.971 535.877 131.877 535.325 131.783 534.772C131.844 534.043 131.904 533.314 131.963 531.894C131.937 530.512 131.912 529.821 132.002 528.777C133.348 524.299 134.333 520.08 135.86 516.067C139.995 505.194 144.787 494.553 148.533 483.553C153.988 467.536 156.811 451.031 155.153 433.997C155.153 432.194 155.153 430.391 155.153 426.815C156.967 428.543 158.56 429.324 158.855 430.447C170.547 474.942 176.473 519.658 163.305 565.682C162.579 567.901 162.029 569.447 161.261 571.233C160.115 572.371 159.188 573.268 157.872 574.155C154.841 572.674 151.288 571.846 149.717 569.619C143.869 561.332 138.673 552.585 133.233 544.012Z" fill="#333333"/>
<path d="M203.402 4.99716C202.746 19.3738 202.089 33.7505 201.353 48.9521C199.269 56.7129 197.266 63.6487 195.262 70.5845C170.45 80.2223 145.746 84.0715 120.728 69.0361C128.038 64.1493 135.013 59.5765 141.891 54.8636C148.329 50.4522 154.53 45.683 161.076 41.4421C173.98 33.0813 179.038 21.1331 178.181 6.14215C178.065 4.11206 178.95 2.02481 180.225 0C188.255 0.420395 195.431 0.804809 202.822 1.20076C203.016 2.46672 203.209 3.73195 203.402 4.99716Z" fill="#333333"/>
<path d="M209.287 56.9905C209.283 56.5394 209.279 56.0882 209.159 55.317C208.145 37.1081 207.248 19.2195 206.317 0.669464C215.549 0.669464 223.454 0.669464 232.142 0.669464C232.142 4.15019 232.071 7.9335 232.155 11.7134C232.391 22.2877 236.103 31.3794 244.685 37.792C254.816 45.363 265.289 52.4769 275.947 59.8706C280.626 62.8566 284.971 65.761 289.639 68.8811C278.389 75.635 266.948 80.6267 253.812 78.9286C243.166 77.5524 232.578 75.658 222.024 73.6735C219.528 73.2041 217.273 71.4516 214.588 70.1427C213.325 68.1923 212.381 66.3885 211.255 63.9744C210.776 62.581 210.478 61.7978 210.181 61.0146C210.193 60.8377 210.205 60.6608 210.135 59.9251C209.798 58.5744 209.542 57.7824 209.287 56.9905Z" fill="#333333"/>
<path d="M133.993 304.961C136.177 303.794 137.741 303.688 138.264 306.99C138.737 308.791 139.086 309.968 139.436 311.144C144.736 334.778 136.176 353.445 118.684 368.875C117.142 370.236 115.346 371.308 113.667 372.514C113.202 372.301 112.736 372.089 112.27 371.877C113.192 365.07 113.507 358.11 115.169 351.489C118.112 339.767 121.466 328.106 125.502 316.723C127.02 312.442 130.915 309.004 133.993 304.961Z" fill="#333333"/>
<path d="M256.267 297.074C253.566 297.522 251.593 296.427 252.625 293.684C257.697 280.207 262.985 266.81 268.386 253.461C269.529 250.637 271.464 248.135 274.165 245.77C275.865 263.668 277.565 281.567 279.317 300.009C275.98 298.9 273.488 298.072 270.248 297.101C265.088 296.997 260.677 297.035 256.267 297.074Z" fill="#333333"/>
<path d="M247.278 448.493C247.282 448.715 247.285 448.937 247.026 448.897C246.092 449.404 245.006 450.077 244.801 450.955C239.963 471.686 236.299 492.566 237.241 514.367C237.23 515.493 237.302 516.247 237.375 517.002C237.439 521.044 237.503 525.086 237.427 529.55C237.287 529.973 237.33 529.932 237.33 529.932C235.173 524.091 232.827 518.312 230.895 512.397C223.868 490.881 217.089 469.258 214.787 446.622C213.669 435.62 213.653 424.506 213.842 413.101C224.725 422.296 237.185 426.308 250.764 427.994C250.503 429.439 250.303 430.547 249.88 432.381C249.174 435.07 248.691 437.032 248.027 439.261C247.759 439.945 247.672 440.361 247.432 441.019C247.194 441.816 247.107 442.372 246.791 443.288C246.801 445.263 247.039 446.878 247.278 448.493Z" fill="#333333"/>
<path d="M163.038 142.994C158.511 123.237 153.984 103.48 149.57 84.2132C150.595 83.3015 150.806 82.9452 151.065 82.9069C164.528 80.917 177.993 78.9446 191.463 77.0031C192.771 76.8146 194.109 76.8339 195.986 77.0473C196.811 77.5491 197.084 77.7603 197.428 78.2859C198.087 79.7335 198.674 80.8668 199.256 82.3687C199.615 84.1574 199.98 85.5775 200.318 87.4264C204.5 126.088 203.572 164.355 200.973 203.023C196.692 199.675 192.304 196.456 189.489 192.197C182.097 181.018 175.391 169.386 168.377 157.558C166.574 152.453 164.806 147.724 163.038 142.994Z" fill="#333333"/>
<path d="M329.306 79.8673C351.719 95.2582 354.857 123.028 347.704 141.216C346.044 140.034 344.547 138.78 342.882 137.819C339.01 135.585 335.269 132.347 331.094 131.574C321.403 129.78 314.198 124.291 307.089 118.207C295.469 108.262 283.759 98.4223 272.088 88.5364C270.952 87.5745 269.826 86.6014 268.784 85.7095C277.583 71.039 308.89 68.1024 329.306 79.8673Z" fill="#333333"/>
<path d="M308.315 539.569C308.32 540.389 308.253 540.778 307.906 541.464C307.281 541.649 306.938 541.537 306.598 541.109C305.816 537.195 305.031 533.597 304.304 529.619C303.774 509.144 303.185 489.049 302.597 468.954C303.251 455.314 301.997 442.007 298.947 428.545C296.401 417.313 292.768 405.608 297.822 393.658C299.698 389.222 299.549 383.929 300.386 378.631C311.016 414.776 321.598 450.522 316.348 488.467C314.23 503.779 311.309 518.981 308.779 534.237C308.511 535.856 308.418 537.504 308.315 539.569Z" fill="#333333"/>
<path d="M199.436 402.004C188.112 420.279 157.118 427.029 139.569 420.723C138.055 420.179 136.563 419.576 134.534 418.556C131.837 416.382 129.666 414.652 127.496 412.923C120.039 403.297 116.472 392.229 115.18 380.257C114.846 377.167 115.648 375.203 118.109 373.042C123.079 368.678 127.794 363.931 132.059 358.873C143.796 344.952 146.676 329.068 141.43 310.984C140.884 309.202 140.513 308.098 140.153 306.645C139.157 303.585 140.549 302.408 142.971 302.65C149.198 303.272 155.559 303.526 161.578 305.06C176.607 308.891 187.368 318.823 196.389 331.351C198.485 337.116 201.668 342.398 202.292 347.968C203.545 359.138 204.003 370.486 203.605 381.719C203.364 388.521 200.901 395.245 199.436 402.004Z" fill="#333333"/>
<path d="M196.268 207.998L195.768 209.998L185.768 226.998L176.268 244.498L168.268 261.998L164.268 273.498L163.268 286.998V297.998L159.268 296.998V293.498L158.768 286.998L156.268 277.498L153.268 269.498L150.268 262.998L146.268 255.498L141.768 246.998L128.768 225.498L117.768 206.998L109.768 193.498L106.768 187.998L106.268 185.998L105.268 182.498L104.768 177.498L103.768 169.998L102.768 161.498L101.768 154.498L101.268 148.998L100.768 145.498V141.498L105.768 147.498L113.268 154.498L118.768 158.998L124.268 162.498L134.268 165.998L139.768 166.998L145.768 167.498L151.268 166.998L156.768 165.498L164.768 162.498L165.768 162.998L173.768 176.998L183.268 190.998L190.768 200.498L195.768 205.998L196.268 207.998Z" fill="#333333"/>
<path d="M328.768 133.998L330.268 134.498L339.268 138.498L348.768 148.498L355.768 159.498L359.268 174.498L361.268 187.498L362.768 201.998L361.268 217.998L356.768 207.498L354.268 202.998L348.768 196.498L346.268 190.998L338.268 183.998L335.268 193.998L333.268 209.998L333.768 217.998L334.768 230.498L329.768 225.998L326.768 222.998L322.768 217.998L319.268 212.998L317.268 209.498L314.768 204.498L312.268 198.498L310.768 193.998L309.768 189.498L309.268 185.998V182.998L308.768 177.998L309.268 174.498L309.768 169.998L310.268 165.498L311.268 159.498L311.768 155.998L312.268 152.498L312.768 149.998L313.268 146.998L314.268 143.498L314.768 140.998L315.268 138.498L315.768 136.498L317.268 134.498L319.268 133.498L321.268 132.998H323.768L326.768 133.498L328.768 133.998Z" fill="#333333"/>
<path d="M333.768 236.498L335.268 235.498L339.268 241.498L363.268 283.998L378.768 314.498L387.268 332.498L388.768 339.498L386.268 337.498L371.268 318.998L364.268 309.998L355.268 298.498L349.268 290.998L344.268 283.998L339.268 276.498L336.768 270.998L334.768 266.498L332.268 259.998L330.768 254.998L330.268 251.998V249.498V247.498V244.998L330.768 241.998L331.768 239.998L332.768 237.998L333.768 236.498Z" fill="#333333"/>
<path d="M344.268 246.998L346.268 245.498L353.268 248.498L360.268 249.498L365.768 239.998L374.268 270.998L380.768 290.998L385.768 303.498L390.768 314.998L395.268 325.998L397.268 332.498L392.768 335.998H390.768L383.268 320.998L375.268 303.998L360.268 273.998L353.268 261.998L346.768 250.998L344.268 246.998Z" fill="#333333"/>
<path d="M366.768 230.498V218.998L374.268 224.498L379.768 230.498L383.768 235.998L387.268 241.498L390.768 251.998L395.268 267.998L398.768 283.998L401.768 304.998L405.768 314.498L410.768 330.998L408.268 332.498H403.768L400.268 329.498L392.768 315.998L386.268 302.498L382.268 292.498L378.768 279.998L373.768 265.998L369.268 246.998L366.768 230.498Z" fill="#333333"/>
<path d="M135.768 247.498L137.268 244.998L146.268 261.498L150.768 272.498L156.268 286.498L159.268 293.998V296.998H157.768H153.768L149.768 296.498H145.268L140.268 296.998L134.768 299.498H133.268L131.268 297.998V296.498L132.268 289.498L133.268 278.498L134.768 258.998L135.768 247.498Z" fill="#333333"/>
<path d="M195.768 413.498L197.768 411.998V415.998L198.268 420.498L197.768 431.498L196.768 443.498L195.268 455.498L193.768 463.498L189.768 481.498L185.768 495.498L181.268 510.498L178.768 519.498L175.268 530.998H173.268L173.768 526.998L174.768 515.498V501.998L174.268 495.498L173.268 486.498L172.268 478.498L171.268 470.498L168.768 460.498L166.268 449.998L164.768 443.998L162.768 434.998L160.768 427.998L162.768 427.498L166.268 426.998L170.768 425.998L176.268 424.498L180.768 422.498L184.768 420.998L188.268 418.998L191.268 416.998L193.768 414.998L195.768 413.498Z" fill="#333333"/>
<path d="M311.768 695.498L324.268 693.498L322.768 704.498L320.268 725.498L317.768 746.998L314.768 770.998L314.268 775.998L313.768 781.498V787.998L313.268 790.998L311.768 794.498L310.268 797.498L308.268 798.998L305.268 799.998V798.498V787.998V781.498L305.768 772.998L306.768 760.998L307.268 749.498L307.768 739.498L308.268 730.498L309.268 722.498L309.768 715.998L310.268 710.498L310.768 703.498L311.768 695.498Z" fill="#333333"/>
</svg>
