<svg version="1.1" id="Layer_1" xmlns="http://www.w3.org/2000/svg" xmlns:xlink="http://www.w3.org/1999/xlink" x="0px" y="0px"
	 width="100%" viewBox="0 0 1071 1008" enable-background="new 0 0 1071 1008" xml:space="preserve">
<path fill="#333333" opacity="1.000000" stroke="none" 
	d="
M517.000000,1009.000000 
	C344.687286,1009.000000 172.874588,1009.000000 1.030941,1009.000000 
	C1.030941,673.060974 1.030941,337.121918 1.030941,1.091443 
	C357.896179,1.091443 714.792358,1.091443 1071.844238,1.091443 
	C1071.844238,336.999939 1071.844238,672.999939 1071.844238,1009.000000 
	C887.121643,1009.000000 702.310852,1009.000000 517.000000,1009.000000 
M534.860535,817.218933 
	C544.826172,816.840759 554.808716,816.712524 564.754456,816.039795 
	C601.911438,813.526489 637.248718,803.891724 670.795837,787.874084 
	C706.913940,770.628967 738.902344,747.755737 766.379456,718.389343 
	C788.442993,694.808777 806.808472,668.764832 820.716980,639.804016 
	C843.008789,593.387085 853.354858,544.326294 851.101440,492.664185 
	C849.562683,457.387451 842.657349,423.381042 829.643372,390.539368 
	C815.167847,354.009369 794.295044,321.521423 767.814209,292.683685 
	C741.396790,263.914886 710.357422,241.043823 675.262268,223.973892 
	C645.888245,209.686691 614.969788,200.127350 582.460571,195.804703 
	C549.184204,191.380066 516.087219,191.886429 483.038177,197.806717 
	C439.246155,205.651428 399.276459,222.522385 362.602478,247.656265 
	C328.750458,270.856171 300.714691,299.767487 278.152100,333.813416 
	C252.393158,372.682495 236.154999,415.359680 229.810318,461.713318 
	C225.601166,492.464935 225.735168,523.213074 230.519257,553.792236 
	C235.438782,585.237183 245.111084,615.315918 259.558167,643.775452 
	C278.331970,680.758179 303.348999,712.865845 334.561005,740.176453 
	C364.625580,766.482971 398.479218,786.440979 436.092926,799.715698 
	C467.692474,810.867798 500.318359,817.086365 534.860535,817.218933 
z"/>
<path fill="#D70313" opacity="1.000000" stroke="none" 
	d="
M534.413940,817.178467 
	C500.318359,817.086365 467.692474,810.867798 436.092926,799.715698 
	C398.479218,786.440979 364.625580,766.482971 334.561005,740.176453 
	C303.348999,712.865845 278.331970,680.758179 259.558167,643.775452 
	C245.111084,615.315918 235.438782,585.237183 230.519257,553.792236 
	C225.735168,523.213074 225.601166,492.464935 229.810318,461.713318 
	C236.154999,415.359680 252.393158,372.682495 278.152100,333.813416 
	C300.714691,299.767487 328.750458,270.856171 362.602478,247.656265 
	C399.276459,222.522385 439.246155,205.651428 483.038177,197.806717 
	C516.087219,191.886429 549.184204,191.380066 582.460571,195.804703 
	C614.969788,200.127350 645.888245,209.686691 675.262268,223.973892 
	C710.357422,241.043823 741.396790,263.914886 767.814209,292.683685 
	C794.295044,321.521423 815.167847,354.009369 829.643372,390.539368 
	C842.657349,423.381042 849.562683,457.387451 851.101440,492.664185 
	C853.354858,544.326294 843.008789,593.387085 820.716980,639.804016 
	C806.808472,668.764832 788.442993,694.808777 766.379456,718.389343 
	C738.902344,747.755737 706.913940,770.628967 670.795837,787.874084 
	C637.248718,803.891724 601.911438,813.526489 564.754456,816.039795 
	C554.808716,816.712524 544.826172,816.840759 534.413940,817.178467 
M547.499512,377.296478 
	C504.396606,378.905609 461.271545,380.080566 418.198425,382.274292 
	C388.759430,383.773621 372.621887,398.635803 367.979706,427.617004 
	C361.787842,466.272797 360.725525,505.225891 363.783325,544.216858 
	C365.017487,559.953857 366.798889,575.768250 370.002686,591.200439 
	C374.157990,611.215637 389.837463,624.960022 410.116760,626.888062 
	C432.649353,629.030273 455.275757,630.409668 477.892914,631.395874 
	C539.873413,634.098694 601.811768,632.991699 663.638489,627.764587 
	C688.815308,625.635986 704.469910,611.881836 709.439880,588.281006 
	C710.878784,581.448120 711.936707,574.510193 712.728760,567.570129 
	C717.776489,523.338135 717.442688,479.128265 711.611694,434.990967 
	C710.106201,423.595154 708.426147,412.149780 701.303162,402.493958 
	C691.373657,389.033600 677.581055,382.944244 661.305603,382.185364 
	C623.709229,380.432343 586.101929,378.915192 547.499512,377.296478 
z"/>
<path fill="#FFFDFD" opacity="1.000000" stroke="none" 
	d="
M547.999268,377.299438 
	C586.101929,378.915192 623.709229,380.432343 661.305603,382.185364 
	C677.581055,382.944244 691.373657,389.033600 701.303162,402.493958 
	C708.426147,412.149780 710.106201,423.595154 711.611694,434.990967 
	C717.442688,479.128265 717.776489,523.338135 712.728760,567.570129 
	C711.936707,574.510193 710.878784,581.448120 709.439880,588.281006 
	C704.469910,611.881836 688.815308,625.635986 663.638489,627.764587 
	C601.811768,632.991699 539.873413,634.098694 477.892914,631.395874 
	C455.275757,630.409668 432.649353,629.030273 410.116760,626.888062 
	C389.837463,624.960022 374.157990,611.215637 370.002686,591.200439 
	C366.798889,575.768250 365.017487,559.953857 363.783325,544.216858 
	C360.725525,505.225891 361.787842,466.272797 367.979706,427.617004 
	C372.621887,398.635803 388.759430,383.773621 418.198425,382.274292 
	C461.271545,380.080566 504.396606,378.905609 547.999268,377.299438 
M557.139221,481.409546 
	C538.389771,470.530151 519.640259,459.650726 500.421997,448.499329 
	C500.421997,486.692871 500.421997,523.674072 500.421997,561.620972 
	C533.035034,542.588806 564.832397,524.032593 597.468262,504.987061 
	C583.567017,496.867401 570.663696,489.330658 557.139221,481.409546 
z"/>
<path fill="#D60817" opacity="1.000000" stroke="none" 
	d="
M557.449829,481.601715 
	C570.663696,489.330658 583.567017,496.867401 597.468262,504.987061 
	C564.832397,524.032593 533.035034,542.588806 500.421997,561.620972 
	C500.421997,523.674072 500.421997,486.692871 500.421997,448.499329 
	C519.640259,459.650726 538.389771,470.530151 557.449829,481.601715 
z"/>
</svg>