<svg version="1.1" id="Layer_1" xmlns="http://www.w3.org/2000/svg" xmlns:xlink="http://www.w3.org/1999/xlink" x="0px" y="0px"
	 width="100%" viewBox="0 0 1071 1008" enable-background="new 0 0 1071 1008" xml:space="preserve">
<path fill="#333333" opacity="1.000000" stroke="none" 
	d="
M594.000000,1009.000000 
	C396.023712,1009.000000 198.547424,1009.000000 1.035563,1009.000000 
	C1.035563,673.064026 1.035563,337.128082 1.035563,1.096065 
	C357.893097,1.096065 714.786194,1.096065 1071.839600,1.096065 
	C1071.839600,336.999939 1071.839600,672.999939 1071.839600,1009.000000 
	C912.794495,1009.000000 753.647278,1009.000000 594.000000,1009.000000 
M163.328812,604.155212 
	C174.241623,643.243286 190.616867,679.927002 212.310623,714.188721 
	C231.836823,745.027161 255.223770,772.770447 282.233582,797.252380 
	C295.026367,808.847961 308.698090,819.635010 322.842377,829.545654 
	C354.541626,851.756836 389.005890,868.660095 425.974091,880.333313 
	C454.835327,889.446594 484.386078,895.273804 514.575745,896.685974 
	C532.814819,897.539185 551.165649,896.653198 569.441162,895.920471 
	C595.186951,894.888306 620.208923,889.341125 644.822205,882.063049 
	C674.023254,873.428467 701.733093,861.153259 728.004883,845.820923 
	C775.209656,818.272156 814.984558,782.239380 847.506409,738.408813 
	C873.594360,703.249268 893.477417,664.713013 907.084045,623.037415 
	C923.540955,572.631409 930.288452,521.067810 926.136536,468.063080 
	C924.181274,443.101288 920.318726,418.543854 913.994873,394.350922 
	C896.436890,327.179718 863.361206,268.632904 815.590942,218.401184 
	C797.076843,198.933136 776.519348,181.697662 754.384766,166.483139 
	C732.788879,151.638885 709.719604,139.414032 685.538696,129.234131 
	C643.804443,111.664513 600.212585,102.353271 555.128418,100.265976 
	C522.424683,98.751869 489.943329,101.501808 457.831024,108.166405 
	C412.618896,117.549744 370.677521,134.985123 331.894867,159.879608 
	C300.067291,180.309601 271.619080,204.692139 246.906082,233.496002 
	C226.638824,257.118164 208.959854,282.415375 194.626587,309.996368 
	C176.783447,344.331329 164.183472,380.518066 156.595978,418.517090 
	C149.508026,454.014374 147.564346,489.716034 149.880112,525.796387 
	C151.572159,552.158997 156.446259,577.899048 163.328812,604.155212 
z"/>
<path fill="#A60B1C" opacity="1.000000" stroke="none" 
	d="
M163.234024,603.760986 
	C156.446259,577.899048 151.572159,552.158997 149.880112,525.796387 
	C147.564346,489.716034 149.508026,454.014374 156.595978,418.517090 
	C164.183472,380.518066 176.783447,344.331329 194.626587,309.996368 
	C208.959854,282.415375 226.638824,257.118164 246.906082,233.496002 
	C271.619080,204.692139 300.067291,180.309601 331.894867,159.879608 
	C370.677521,134.985123 412.618896,117.549744 457.831024,108.166405 
	C489.943329,101.501808 522.424683,98.751869 555.128418,100.265976 
	C600.212585,102.353271 643.804443,111.664513 685.538696,129.234131 
	C709.719604,139.414032 732.788879,151.638885 754.384766,166.483139 
	C776.519348,181.697662 797.076843,198.933136 815.590942,218.401184 
	C863.361206,268.632904 896.436890,327.179718 913.994873,394.350922 
	C920.318726,418.543854 924.181274,443.101288 926.136536,468.063080 
	C930.288452,521.067810 923.540955,572.631409 907.084045,623.037415 
	C893.477417,664.713013 873.594360,703.249268 847.506409,738.408813 
	C814.984558,782.239380 775.209656,818.272156 728.004883,845.820923 
	C701.733093,861.153259 674.023254,873.428467 644.822205,882.063049 
	C620.208923,889.341125 595.186951,894.888306 569.441162,895.920471 
	C551.165649,896.653198 532.814819,897.539185 514.575745,896.685974 
	C484.386078,895.273804 454.835327,889.446594 425.974091,880.333313 
	C389.005890,868.660095 354.541626,851.756836 322.842377,829.545654 
	C308.698090,819.635010 295.026367,808.847961 282.233582,797.252380 
	C255.223770,772.770447 231.836823,745.027161 212.310623,714.188721 
	C190.616867,679.927002 174.241623,643.243286 163.234024,603.760986 
M678.925354,190.511688 
	C658.439880,182.025208 637.553040,174.730377 615.685120,170.777252 
	C601.157410,168.151031 586.566528,165.447479 571.883606,164.233154 
	C558.535583,163.129227 544.957397,163.134613 531.602722,164.192093 
	C513.274780,165.643372 494.909302,167.719925 476.840118,171.049408 
	C456.215179,174.849838 436.310791,181.505188 416.929993,189.760834 
	C394.297852,199.401474 372.924652,211.272720 353.148712,225.748062 
	C333.420410,240.188538 314.486542,255.741135 298.822418,274.738007 
	C288.364746,287.420685 277.756592,300.049316 268.306488,313.470123 
	C260.973206,323.884613 255.216949,335.425262 248.954590,346.574799 
	C237.231369,367.446869 229.056839,389.762726 222.590637,412.733215 
	C213.287827,445.780426 208.823090,479.447845 209.994507,513.805786 
	C210.277618,522.109558 210.152939,530.468628 211.105682,538.699219 
	C212.783783,553.195801 214.332123,567.787903 217.385498,582.028931 
	C224.820618,616.706543 237.336456,649.545105 254.685410,680.580872 
	C268.160309,704.686340 284.321686,726.824341 303.423920,746.588074 
	C316.330261,759.941284 330.506927,772.150635 344.774384,784.083679 
	C363.992615,800.157532 385.533020,812.867065 408.201111,823.372070 
	C428.733276,832.887268 449.961731,840.647827 472.168335,845.708557 
	C494.604980,850.821655 517.225037,854.350220 540.189636,854.832336 
	C552.441711,855.089539 564.737549,853.818665 576.998047,853.003296 
	C597.992310,851.607117 618.586670,847.536011 638.616699,841.399231 
	C664.890930,833.349304 690.084106,822.617920 713.770508,808.395020 
	C736.395569,794.809509 757.369690,779.137146 776.429321,760.952820 
	C784.970398,752.803955 793.314270,744.355408 800.918823,735.343506 
	C808.832092,725.965759 816.240967,716.069275 822.970337,705.809265 
	C831.342957,693.043945 839.786072,680.152222 846.393005,666.444702 
	C854.821045,648.958923 862.491882,630.945862 868.521484,612.516357 
	C873.598938,596.997192 876.517212,580.665527 879.181335,564.494202 
	C881.629395,549.634827 883.422363,534.530823 883.756958,519.495728 
	C884.148193,501.915863 883.267944,484.240570 881.759583,466.708160 
	C880.668701,454.028534 877.934509,441.457397 875.391296,428.948059 
	C873.873230,421.481079 871.157532,414.265961 869.244080,406.869354 
	C863.964905,386.463135 855.680908,367.211609 846.137512,348.553894 
	C833.758240,324.351868 818.957825,301.757599 801.009888,281.127563 
	C784.878052,262.585114 767.282349,245.788406 747.805603,230.905228 
	C726.711487,214.786179 703.975525,201.423416 678.925354,190.511688 
z"/>
<path fill="#C8061C" opacity="1.000000" stroke="none" 
	d="
M679.274414,190.670166 
	C703.975525,201.423416 726.711487,214.786179 747.805603,230.905228 
	C767.282349,245.788406 784.878052,262.585114 801.009888,281.127563 
	C818.957825,301.757599 833.758240,324.351868 846.137512,348.553894 
	C855.680908,367.211609 863.964905,386.463135 869.244080,406.869354 
	C871.157532,414.265961 873.873230,421.481079 875.391296,428.948059 
	C877.934509,441.457397 880.668701,454.028534 881.759583,466.708160 
	C883.267944,484.240570 884.148193,501.915863 883.756958,519.495728 
	C883.422363,534.530823 881.629395,549.634827 879.181335,564.494202 
	C876.517212,580.665527 873.598938,596.997192 868.521484,612.516357 
	C862.491882,630.945862 854.821045,648.958923 846.393005,666.444702 
	C839.786072,680.152222 831.342957,693.043945 822.970337,705.809265 
	C816.240967,716.069275 808.832092,725.965759 800.918823,735.343506 
	C793.314270,744.355408 784.970398,752.803955 776.429321,760.952820 
	C757.369690,779.137146 736.395569,794.809509 713.770508,808.395020 
	C690.084106,822.617920 664.890930,833.349304 638.616699,841.399231 
	C618.586670,847.536011 597.992310,851.607117 576.998047,853.003296 
	C564.737549,853.818665 552.441711,855.089539 540.189636,854.832336 
	C517.225037,854.350220 494.604980,850.821655 472.168335,845.708557 
	C449.961731,840.647827 428.733276,832.887268 408.201111,823.372070 
	C385.533020,812.867065 363.992615,800.157532 344.774384,784.083679 
	C330.506927,772.150635 316.330261,759.941284 303.423920,746.588074 
	C284.321686,726.824341 268.160309,704.686340 254.685410,680.580872 
	C237.336456,649.545105 224.820618,616.706543 217.385498,582.028931 
	C214.332123,567.787903 212.783783,553.195801 211.105682,538.699219 
	C210.152939,530.468628 210.277618,522.109558 209.994507,513.805786 
	C208.823090,479.447845 213.287827,445.780426 222.590637,412.733215 
	C229.056839,389.762726 237.231369,367.446869 248.954590,346.574799 
	C255.216949,335.425262 260.973206,323.884613 268.306488,313.470123 
	C277.756592,300.049316 288.364746,287.420685 298.822418,274.738007 
	C314.486542,255.741135 333.420410,240.188538 353.148712,225.748062 
	C372.924652,211.272720 394.297852,199.401474 416.929993,189.760834 
	C436.310791,181.505188 456.215179,174.849838 476.840118,171.049408 
	C494.909302,167.719925 513.274780,165.643372 531.602722,164.192093 
	C544.957397,163.134613 558.535583,163.129227 571.883606,164.233154 
	C586.566528,165.447479 601.157410,168.151031 615.685120,170.777252 
	C637.553040,174.730377 658.439880,182.025208 679.274414,190.670166 
M362.321503,485.164581 
	C362.520386,486.312531 362.695435,487.465210 362.921722,488.607727 
	C368.100067,514.753052 378.198334,538.417053 399.377747,555.643677 
	C406.208405,561.199463 414.464813,565.323547 422.616211,568.830627 
	C428.913269,571.539917 433.155609,568.737183 435.232452,562.157532 
	C437.534546,554.864319 439.339508,547.415588 441.554443,540.093140 
	C443.979614,532.075623 442.590393,525.220642 436.861328,518.851990 
	C427.482635,508.426178 421.837524,495.868195 419.755890,482.173492 
	C412.339783,433.384033 428.190033,392.572327 466.008118,361.758911 
	C507.991302,327.551849 556.326050,321.576141 606.966125,338.368256 
	C644.625732,350.856110 668.006958,377.722412 676.509949,416.774139 
	C681.592224,440.115234 680.038269,463.538025 675.722656,486.793121 
	C670.672241,514.007874 661.579590,539.624329 643.380981,561.099792 
	C628.476990,578.687378 610.106567,589.802979 586.212463,588.972290 
	C559.207703,588.033508 541.764282,569.035156 542.991699,542.036194 
	C543.209534,537.245239 543.963806,532.370667 545.258423,527.755737 
	C550.429382,509.323730 555.937500,490.986511 561.270081,472.599487 
	C565.687073,457.369293 569.548889,442.088287 568.061707,425.949310 
	C566.144043,405.137634 551.808044,391.526459 530.939941,390.812317 
	C513.663574,390.221069 500.395538,398.045105 490.988556,411.542938 
	C471.259338,439.851959 470.542908,470.448883 482.181427,502.070679 
	C483.047546,504.423859 483.842529,507.295319 483.298309,509.602112 
	C474.462494,547.055237 465.341827,584.440918 456.417084,621.873291 
	C449.358917,651.476685 440.657837,680.769226 440.481537,711.636780 
	C440.363373,732.323059 440.377625,752.957214 445.114716,773.244690 
	C445.524475,774.999634 446.907440,776.527466 447.838348,778.160767 
	C449.252686,777.106873 450.925079,776.273438 452.042511,774.965820 
	C467.838348,756.481812 480.423340,735.924194 490.905487,714.054016 
	C502.349243,690.177368 508.333282,664.515015 515.084351,639.115234 
	C517.887512,628.568665 520.483704,617.967163 523.173218,607.393738 
	C524.020874,607.588257 524.432312,607.557495 524.625122,607.747986 
	C525.570618,608.682190 526.444458,609.688171 527.367859,610.645447 
	C535.655701,619.237732 544.879456,626.500610 556.028076,631.107971 
	C583.084229,642.289246 610.409424,641.105530 637.632080,632.262634 
	C674.705139,620.219849 701.145874,595.137878 720.087097,561.946594 
	C742.097778,523.376709 750.905273,481.303497 747.490845,437.333923 
	C743.104736,380.850983 715.927856,337.578857 667.234619,308.135712 
	C606.665039,271.511322 511.018463,269.627441 443.982849,314.346680 
	C383.723450,354.545502 354.500031,410.833649 362.321503,485.164581 
z"/>
<path fill="#FEFCFC" opacity="1.000000" stroke="none" 
	d="
M362.239319,484.733185 
	C354.500031,410.833649 383.723450,354.545502 443.982849,314.346680 
	C511.018463,269.627441 606.665039,271.511322 667.234619,308.135712 
	C715.927856,337.578857 743.104736,380.850983 747.490845,437.333923 
	C750.905273,481.303497 742.097778,523.376709 720.087097,561.946594 
	C701.145874,595.137878 674.705139,620.219849 637.632080,632.262634 
	C610.409424,641.105530 583.084229,642.289246 556.028076,631.107971 
	C544.879456,626.500610 535.655701,619.237732 527.367859,610.645447 
	C526.444458,609.688171 525.570618,608.682190 524.625122,607.747986 
	C524.432312,607.557495 524.020874,607.588257 523.173218,607.393738 
	C520.483704,617.967163 517.887512,628.568665 515.084351,639.115234 
	C508.333282,664.515015 502.349243,690.177368 490.905487,714.054016 
	C480.423340,735.924194 467.838348,756.481812 452.042511,774.965820 
	C450.925079,776.273438 449.252686,777.106873 447.838348,778.160767 
	C446.907440,776.527466 445.524475,774.999634 445.114716,773.244690 
	C440.377625,752.957214 440.363373,732.323059 440.481537,711.636780 
	C440.657837,680.769226 449.358917,651.476685 456.417084,621.873291 
	C465.341827,584.440918 474.462494,547.055237 483.298309,509.602112 
	C483.842529,507.295319 483.047546,504.423859 482.181427,502.070679 
	C470.542908,470.448883 471.259338,439.851959 490.988556,411.542938 
	C500.395538,398.045105 513.663574,390.221069 530.939941,390.812317 
	C551.808044,391.526459 566.144043,405.137634 568.061707,425.949310 
	C569.548889,442.088287 565.687073,457.369293 561.270081,472.599487 
	C555.937500,490.986511 550.429382,509.323730 545.258423,527.755737 
	C543.963806,532.370667 543.209534,537.245239 542.991699,542.036194 
	C541.764282,569.035156 559.207703,588.033508 586.212463,588.972290 
	C610.106567,589.802979 628.476990,578.687378 643.380981,561.099792 
	C661.579590,539.624329 670.672241,514.007874 675.722656,486.793121 
	C680.038269,463.538025 681.592224,440.115234 676.509949,416.774139 
	C668.006958,377.722412 644.625732,350.856110 606.966125,338.368256 
	C556.326050,321.576141 507.991302,327.551849 466.008118,361.758911 
	C428.190033,392.572327 412.339783,433.384033 419.755890,482.173492 
	C421.837524,495.868195 427.482635,508.426178 436.861328,518.851990 
	C442.590393,525.220642 443.979614,532.075623 441.554443,540.093140 
	C439.339508,547.415588 437.534546,554.864319 435.232452,562.157532 
	C433.155609,568.737183 428.913269,571.539917 422.616211,568.830627 
	C414.464813,565.323547 406.208405,561.199463 399.377747,555.643677 
	C378.198334,538.417053 368.100067,514.753052 362.921722,488.607727 
	C362.695435,487.465210 362.520386,486.312531 362.239319,484.733185 
z"/>
</svg>