<svg version="1.1" id="Layer_1" xmlns="http://www.w3.org/2000/svg" xmlns:xlink="http://www.w3.org/1999/xlink" x="0px" y="0px"
	 width="100%" viewBox="0 0 1071 1008" enable-background="new 0 0 1071 1008" xml:space="preserve">
<path fill="#333333" opacity="1.000000" stroke="none" 
	d="
M609.000000,1009.000000 
	C406.024323,1009.000000 203.548615,1009.000000 1.036463,1009.000000 
	C1.036463,673.064636 1.036463,337.129303 1.036463,1.096965 
	C357.892487,1.096965 714.784973,1.096965 1071.838745,1.096965 
	C1071.838745,336.999939 1071.838745,672.999939 1071.838745,1009.000000 
	C917.795715,1009.000000 763.647888,1009.000000 609.000000,1009.000000 
M167.073029,570.477234 
	C170.937164,587.518677 173.908630,604.821960 178.818634,621.556580 
	C201.120255,697.566467 241.994049,761.844177 302.575989,813.118896 
	C368.658600,869.049133 445.477844,897.200012 531.765381,899.698425 
	C556.781738,900.422791 581.688354,898.245300 606.291443,893.350098 
	C692.784119,876.141174 763.960205,833.132935 820.547546,765.766724 
	C861.727478,716.742676 888.848877,660.591553 903.415710,598.438599 
	C914.379028,551.661011 916.811340,504.302826 911.133057,456.497314 
	C905.253052,406.994049 891.130798,360.102905 868.420349,315.729218 
	C845.813354,271.557739 815.570740,233.410904 778.246216,200.845749 
	C742.940002,170.041550 703.182373,146.737045 658.951050,131.227585 
	C606.859070,112.961838 553.319641,107.122597 498.440857,112.867409 
	C459.132690,116.982262 421.531769,127.353668 385.688080,143.834473 
	C340.953583,164.403198 301.969299,192.969543 268.337494,229.000214 
	C235.654449,264.014435 210.344482,303.710175 192.380188,347.975616 
	C175.280472,390.110596 165.244278,433.922058 162.819641,479.484131 
	C161.211090,509.710876 162.320221,539.717285 167.073029,570.477234 
z"/>
<path fill="#010101" opacity="1.000000" stroke="none" 
	d="
M167.028839,570.042236 
	C162.320221,539.717285 161.211090,509.710876 162.819641,479.484131 
	C165.244278,433.922058 175.280472,390.110596 192.380188,347.975616 
	C210.344482,303.710175 235.654449,264.014435 268.337494,229.000214 
	C301.969299,192.969543 340.953583,164.403198 385.688080,143.834473 
	C421.531769,127.353668 459.132690,116.982262 498.440857,112.867409 
	C553.319641,107.122597 606.859070,112.961838 658.951050,131.227585 
	C703.182373,146.737045 742.940002,170.041550 778.246216,200.845749 
	C815.570740,233.410904 845.813354,271.557739 868.420349,315.729218 
	C891.130798,360.102905 905.253052,406.994049 911.133057,456.497314 
	C916.811340,504.302826 914.379028,551.661011 903.415710,598.438599 
	C888.848877,660.591553 861.727478,716.742676 820.547546,765.766724 
	C763.960205,833.132935 692.784119,876.141174 606.291443,893.350098 
	C581.688354,898.245300 556.781738,900.422791 531.765381,899.698425 
	C445.477844,897.200012 368.658600,869.049133 302.575989,813.118896 
	C241.994049,761.844177 201.120255,697.566467 178.818634,621.556580 
	C173.908630,604.821960 170.937164,587.518677 167.028839,570.042236 
M416.808228,660.297974 
	C416.218170,660.093994 415.628113,659.890015 414.867096,659.182922 
	C414.125641,658.470520 413.384186,657.758179 412.294403,656.365479 
	C410.692719,653.638611 408.936676,650.989685 407.513275,648.172729 
	C393.404327,620.250671 394.833984,593.030640 412.833252,567.512268 
	C425.613129,549.393677 444.039795,539.481018 466.614288,535.832092 
	C467.122253,535.717041 467.630219,535.602051 469.016693,535.661255 
	C480.039581,536.299866 491.062469,536.938477 502.498749,537.601074 
	C502.448669,537.804993 502.802673,537.034119 502.803619,536.262878 
	C502.839478,507.013031 502.885864,477.762909 502.700134,448.514282 
	C502.692352,447.291138 500.582764,445.164337 499.276672,445.017090 
	C491.529907,444.143738 483.731262,443.730621 475.929199,442.205872 
	C475.906738,435.839905 475.884247,429.473907 475.993958,422.508026 
	C475.721130,422.237030 475.448273,421.966064 474.472839,421.344940 
	C450.932739,418.500519 427.667572,420.471039 405.347290,428.094696 
	C335.479401,451.958771 292.961212,499.439240 283.775146,573.763672 
	C278.793610,614.069092 288.293335,651.507080 310.996948,685.445618 
	C320.934174,700.300171 334.140747,712.036682 347.188080,724.791626 
	C349.500153,727.414734 351.616272,730.246277 354.153168,732.630127 
	C406.699341,782.005920 467.893341,795.267212 535.387512,771.817261 
	C605.535828,747.445129 649.334961,682.416138 649.522766,607.558472 
	C649.662354,551.897095 649.587524,496.235199 649.638611,440.573547 
	C649.640625,438.382355 649.956116,436.191437 650.214111,432.854523 
	C688.428101,459.100861 729.679138,471.890656 775.070374,472.106262 
	C775.070374,440.404938 775.070374,409.373535 775.070374,378.271179 
	C766.133545,377.515717 757.694153,376.802307 748.865967,375.204559 
	C748.865967,368.163971 748.865967,361.123383 748.865967,353.668060 
	C723.908813,353.451569 701.536072,347.014374 680.396118,334.927826 
	C680.261841,334.798401 680.127502,334.668945 679.847107,333.910095 
	C661.516785,310.568695 649.822266,284.694122 649.632202,254.464874 
	C649.614624,251.670059 648.492798,250.668381 645.742676,250.738983 
	C638.277588,250.930664 630.808105,250.947601 623.094055,250.166031 
	C622.687561,242.739395 622.281067,235.312775 621.873535,227.866806 
	C592.127991,227.866806 562.690552,227.866806 532.751526,227.866806 
	C532.751526,229.944626 532.751648,231.747116 532.751465,233.549622 
	C532.736938,349.512115 532.746033,465.474670 532.649658,581.437073 
	C532.643860,588.406799 532.223633,595.435852 531.252991,602.332703 
	C529.250610,616.561035 522.388855,628.696045 513.279297,640.237000 
	C512.209778,641.539612 511.140228,642.842224 509.480621,644.372253 
	C508.494598,645.449402 507.508575,646.526611 506.728821,647.673706 
	C506.728821,647.673706 506.790558,647.464844 506.152771,647.670837 
	C505.904297,648.029358 505.655792,648.387878 505.683807,648.682678 
	C505.683807,648.682678 505.611267,648.408386 504.957062,648.650024 
	C503.371765,650.016479 501.786499,651.382935 500.070343,652.721985 
	C500.070343,652.721985 500.033630,652.850586 499.366394,653.005371 
	C497.744110,654.167908 496.121826,655.330444 494.593903,656.515320 
	C494.593903,656.515320 494.603210,656.418884 493.904755,656.606812 
	C490.033600,658.682861 486.162445,660.758911 482.124481,662.750671 
	C482.124481,662.750671 482.033661,662.914001 481.242432,662.943359 
	C477.592468,663.989685 473.977478,665.184082 470.286346,666.056152 
	C456.107697,669.406128 442.027832,668.169312 427.870789,664.721008 
	C427.870789,664.721008 427.666992,664.857727 427.085785,664.340210 
	C425.372223,663.835266 423.658661,663.330261 421.879730,662.716553 
	C421.879730,662.716553 421.767181,662.775085 421.259491,662.245422 
	C419.902191,661.762512 418.544861,661.279602 416.808228,660.297974 
z"/>
<path fill="#DE4361" opacity="1.000000" stroke="none" 
	d="
M749.254761,376.088867 
	C757.694153,376.802307 766.133545,377.515717 775.070374,378.271179 
	C775.070374,409.373535 775.070374,440.404938 775.070374,472.106262 
	C729.679138,471.890656 688.428101,459.100861 650.214111,432.854523 
	C649.956116,436.191437 649.640625,438.382355 649.638611,440.573547 
	C649.587524,496.235199 649.662354,551.897095 649.522766,607.558472 
	C649.334961,682.416138 605.535828,747.445129 535.387512,771.817261 
	C467.893341,795.267212 406.699341,782.005920 354.153168,732.630127 
	C351.616272,730.246277 349.500153,727.414734 347.409393,724.561035 
	C349.766663,725.213745 351.902618,726.097107 354.025299,726.960144 
	C354.012024,726.939819 353.969086,726.965820 354.055328,727.251953 
	C354.507446,727.661804 354.873322,727.785583 355.441711,728.178345 
	C368.507629,735.009583 380.874268,742.917175 394.326599,747.884399 
	C436.318909,763.389954 478.678711,762.906921 519.347900,743.993774 
	C586.509338,712.760559 622.129150,660.036194 622.419312,585.073608 
	C622.639160,528.272339 622.424255,471.469421 622.404358,414.667236 
	C622.403748,413.001648 622.394165,411.335449 622.434204,409.670624 
	C622.518982,406.144318 624.240662,405.701508 626.969604,407.340668 
	C627.966553,407.939514 628.907349,408.634460 629.856445,409.309937 
	C663.377747,433.166504 701.007751,444.934082 741.805603,447.488464 
	C746.505798,447.782776 748.380981,446.172211 748.347778,441.296753 
	C748.199036,419.477997 748.311646,397.657471 748.557251,375.914673 
	C748.784607,375.991791 749.254761,376.088867 749.254761,376.088867 
z"/>
<path fill="#5AC1BF" opacity="1.000000" stroke="none" 
	d="
M354.038574,726.980469 
	C351.902618,726.097107 349.766663,725.213745 347.294647,724.251587 
	C334.140747,712.036682 320.934174,700.300171 310.996948,685.445618 
	C288.293335,651.507080 278.793610,614.069092 283.775146,573.763672 
	C292.961212,499.439240 335.479401,451.958771 405.347290,428.094696 
	C427.667572,420.471039 450.932739,418.500519 474.846130,421.792603 
	C475.433502,422.529480 475.647644,422.818726 475.861786,423.107941 
	C475.884247,429.473907 475.906738,435.839905 475.847717,442.688904 
	C475.766235,443.171967 475.662262,443.323578 475.368378,443.382507 
	C474.699951,443.580231 474.325378,443.719055 473.489990,443.840057 
	C458.600586,443.737732 444.554108,446.053253 430.655396,449.909760 
	C363.615753,468.511383 313.973877,528.311401 309.076904,597.252014 
	C305.830566,642.954163 318.147827,683.926392 347.912140,719.238220 
	C350.032166,721.753296 351.999939,724.396790 354.038574,726.980469 
z"/>
<path fill="#E44161" opacity="1.000000" stroke="none" 
	d="
M468.138184,535.487061 
	C467.630219,535.602051 467.122253,535.717041 465.901917,535.646118 
	C463.212860,535.515076 461.168213,535.259766 459.270691,535.675659 
	C447.372894,538.283325 436.612244,543.448853 426.906647,550.752136 
	C400.759888,570.427124 390.036804,606.489929 401.168701,637.179321 
	C402.859283,641.840088 404.741241,646.431519 407.038910,652.354858 
	C404.984436,651.123352 404.254639,650.776917 403.627380,650.296570 
	C387.630615,638.049072 377.197357,622.423767 374.150696,602.198608 
	C369.917053,574.093994 379.393829,551.225769 400.318939,532.596802 
	C401.753265,531.319885 402.791809,529.598328 404.198914,527.969421 
	C404.383392,527.855225 404.771240,527.660522 405.078918,527.668457 
	C405.914398,527.126465 406.442261,526.576538 407.158325,525.919495 
	C407.346588,525.812317 407.740204,525.631226 408.110474,525.657898 
	C409.568787,525.284058 410.748352,525.038940 411.731323,524.460022 
	C429.354065,514.080750 448.323914,511.932343 468.207977,515.004333 
	C477.402435,516.424866 477.886932,515.954041 477.904938,506.630981 
	C477.940338,488.299286 477.909241,469.967468 477.944885,451.635773 
	C477.957062,445.371796 479.025635,444.454803 485.359802,444.994049 
	C488.507202,445.261932 491.662506,445.897644 494.793762,445.786926 
	C499.544861,445.618927 501.257202,447.520569 501.199066,452.277222 
	C501.007690,467.940155 501.138580,483.607025 501.143677,499.272369 
	C501.147125,509.938141 501.174164,520.604004 501.137939,531.269653 
	C501.118652,536.950378 500.814484,537.106323 495.505188,536.037598 
	C491.918213,535.315674 488.285919,534.341492 484.672974,534.337463 
	C479.161804,534.331360 473.649811,535.066589 468.138184,535.487061 
z"/>
<path fill="#58C2BF" opacity="1.000000" stroke="none" 
	d="
M482.033661,662.914001 
	C482.033661,662.914001 482.124481,662.750671 482.632935,662.806702 
	C486.961975,660.714783 490.782593,658.566833 494.603210,656.418884 
	C494.603210,656.418884 494.593903,656.515320 494.927002,656.553955 
	C496.851288,655.345215 498.442474,654.097900 500.033630,652.850586 
	C500.033630,652.850586 500.070343,652.721985 500.528931,652.732117 
	C502.528748,651.297607 504.070007,649.853027 505.611267,648.408386 
	C505.611267,648.408386 505.683807,648.682678 505.821350,648.550293 
	C506.236115,648.100220 506.513367,647.782532 506.790588,647.464844 
	C506.790558,647.464844 506.728821,647.673706 506.988037,647.652344 
	C508.188416,646.468933 509.129578,645.306885 510.070740,644.144897 
	C511.140228,642.842224 512.209778,641.539612 513.917664,640.041138 
	C515.938538,638.707886 517.764587,637.834045 518.625061,636.386292 
	C521.929565,630.826294 525.360962,625.270386 527.911987,619.353760 
	C530.455750,613.454041 532.001343,607.123901 534.316223,601.187134 
	C539.830566,603.543152 543.079956,600.697266 546.344299,597.145020 
	C549.125732,597.860840 551.562866,598.431641 554.150635,599.309631 
	C555.796082,601.078369 557.290833,602.539978 558.839783,604.451233 
	C558.367798,609.594421 557.841614,614.288025 556.918213,619.055176 
	C552.797607,620.399170 549.748779,621.261597 545.412476,618.842651 
	C541.291931,616.544006 539.621460,614.634338 540.243103,610.302002 
	C540.308838,609.843872 540.184937,609.206421 539.894043,608.878235 
	C539.085083,607.965637 538.141663,607.172119 537.251404,606.331604 
	C536.505676,607.257080 535.453308,608.069641 535.064087,609.126465 
	C532.544495,615.966919 530.631165,622.781311 537.997009,628.139282 
	C538.362000,628.404785 538.398987,629.101013 538.753235,629.404785 
	C542.903381,632.963379 547.084961,636.485107 551.206421,640.386902 
	C536.709473,676.526978 496.213196,697.945068 458.750549,689.265442 
	C441.960358,685.375305 427.430176,677.456726 417.675842,662.951904 
	C419.341553,662.893677 420.554382,662.834351 421.767181,662.775085 
	C421.767181,662.775085 421.879730,662.716553 422.140228,663.092285 
	C424.156158,663.931213 425.911560,664.394470 427.666992,664.857727 
	C427.666992,664.857727 427.870789,664.721008 428.090027,665.155884 
	C429.304443,666.069153 430.261261,666.663086 431.300690,667.008240 
	C442.056580,670.579163 453.171753,670.022339 464.075592,668.725586 
	C470.205292,667.996582 476.056793,664.928345 482.033661,662.914001 
M550.839600,609.414978 
	C551.801819,609.177246 553.611877,608.848083 553.597595,608.715637 
	C553.417297,607.044678 553.183411,605.300964 552.465637,603.816284 
	C552.260254,603.391296 550.459961,603.737366 549.390930,603.729919 
	C549.751404,605.443420 550.111816,607.156921 550.839600,609.414978 
z"/>
<path fill="#5ABFBB" opacity="1.000000" stroke="none" 
	d="
M749.060364,375.646729 
	C749.254761,376.088867 748.784607,375.991791 748.150513,375.877502 
	C734.323608,372.799225 721.616760,368.545929 709.827881,361.777100 
	C698.211304,355.107208 687.801270,347.056213 680.053650,335.937531 
	C680.233032,335.779419 680.583252,335.453827 680.583252,335.453827 
	C701.536072,347.014374 723.908813,353.451569 748.865967,353.668060 
	C748.865967,361.123383 748.865967,368.163971 749.060364,375.646729 
z"/>
<path fill="#74BCBB" opacity="1.000000" stroke="none" 
	d="
M533.984558,600.982483 
	C532.001343,607.123901 530.455750,613.454041 527.911987,619.353760 
	C525.360962,625.270386 521.929565,630.826294 518.625061,636.386292 
	C517.764587,637.834045 515.938538,638.707886 514.210205,639.918823 
	C522.388855,628.696045 529.250610,616.561035 531.252991,602.332703 
	C532.223633,595.435852 532.643860,588.406799 532.649658,581.437073 
	C532.746033,465.474670 532.736938,349.512115 532.751465,233.549622 
	C532.751648,231.747116 532.751526,229.944626 532.751526,227.866806 
	C562.690552,227.866806 592.127991,227.866806 621.873535,227.866806 
	C622.281067,235.312775 622.687561,242.739395 623.128479,250.481049 
	C623.162903,250.796082 622.876831,250.874741 622.637207,250.969513 
	C622.225647,251.070206 622.053772,251.076096 621.876831,250.656921 
	C621.542297,245.490463 621.213013,240.749100 620.898926,235.585876 
	C621.505310,230.638977 619.580688,228.780960 614.982910,228.954056 
	C608.328064,229.204575 601.658875,229.074921 594.527710,229.090424 
	C582.369324,229.080811 570.678955,229.088226 558.522644,229.074585 
	C552.374390,229.063049 546.692139,229.072571 540.650818,229.140030 
	C538.861023,229.461929 537.430237,229.725891 535.718506,230.089447 
	C534.978333,230.791229 534.519165,231.393417 534.052246,232.371124 
	C534.047607,233.497910 534.050720,234.249207 534.044189,235.469025 
	C534.017883,357.619202 534.001221,479.300842 533.984558,600.982483 
z"/>
<path fill="#9E5468" opacity="1.000000" stroke="none" 
	d="
M404.014404,528.083618 
	C402.791809,529.598328 401.753265,531.319885 400.318939,532.596802 
	C379.393829,551.225769 369.917053,574.093994 374.150696,602.198608 
	C377.197357,622.423767 387.630615,638.049072 403.627380,650.296570 
	C404.254639,650.776917 404.984436,651.123352 407.038910,652.354858 
	C404.741241,646.431519 402.859283,641.840088 401.168701,637.179321 
	C390.036804,606.489929 400.759888,570.427124 426.906647,550.752136 
	C436.612244,543.448853 447.372894,538.283325 459.270691,535.675659 
	C461.168213,535.259766 463.212860,535.515076 465.509888,535.627563 
	C444.039795,539.481018 425.613129,549.393677 412.833252,567.512268 
	C394.833984,593.030640 393.404327,620.250671 407.513275,648.172729 
	C408.936676,650.989685 410.692719,653.638611 412.054840,656.670532 
	C409.283173,655.786560 406.534576,654.915527 404.251190,653.361084 
	C366.206299,627.462646 359.839935,572.569092 391.072052,538.719360 
	C394.822754,534.654297 399.673553,531.604187 404.014404,528.083618 
z"/>
<path fill="#4A767E" opacity="1.000000" stroke="none" 
	d="
M404.198914,527.969421 
	C399.673553,531.604187 394.822754,534.654297 391.072052,538.719360 
	C359.839935,572.569092 366.206299,627.462646 404.251190,653.361084 
	C406.534576,654.915527 409.283173,655.786560 412.229004,657.010742 
	C413.384186,657.758179 414.125641,658.470520 414.981812,659.725830 
	C415.085083,660.463562 415.073608,660.658386 414.707916,660.798584 
	C405.149353,657.531494 397.941864,651.483093 391.181213,644.697876 
	C367.457611,620.888184 362.157776,583.730408 378.102814,553.732483 
	C395.238953,521.493774 431.081848,504.546906 467.231445,510.637054 
	C472.964844,511.602966 473.992615,510.779266 473.996918,504.793793 
	C474.011597,484.481873 473.970581,464.169861 473.950836,443.857910 
	C474.325378,443.719055 474.699951,443.580231 475.435455,443.915009 
	C475.845612,465.340088 475.928955,486.291565 475.922852,507.243042 
	C475.921082,513.386719 475.043854,514.217896 468.735870,513.012695 
	C455.070404,510.401733 441.489471,510.460754 428.415527,515.279785 
	C421.228363,517.928955 414.613220,522.129883 407.740173,525.631226 
	C407.740204,525.631226 407.346588,525.812317 406.865234,525.947571 
	C405.846344,526.608704 405.308777,527.134583 404.771240,527.660522 
	C404.771240,527.660522 404.383392,527.855225 404.198914,527.969421 
z"/>
<path fill="#9E5468" opacity="1.000000" stroke="none" 
	d="
M408.110443,525.657837 
	C414.613220,522.129883 421.228363,517.928955 428.415527,515.279785 
	C441.489471,510.460754 455.070404,510.401733 468.735870,513.012695 
	C475.043854,514.217896 475.921082,513.386719 475.922852,507.243042 
	C475.928955,486.291565 475.845612,465.340088 475.729340,443.856079 
	C475.662262,443.323578 475.766235,443.171967 475.858154,443.167358 
	C483.731262,443.730621 491.529907,444.143738 499.276672,445.017090 
	C500.582764,445.164337 502.692352,447.291138 502.700134,448.514282 
	C502.885864,477.762909 502.839478,507.013031 502.803619,536.262878 
	C502.802673,537.034119 502.448669,537.804993 502.498749,537.601074 
	C491.062469,536.938477 480.039581,536.299866 468.577454,535.574158 
	C473.649811,535.066589 479.161804,534.331360 484.672974,534.337463 
	C488.285919,534.341492 491.918213,535.315674 495.505188,536.037598 
	C500.814484,537.106323 501.118652,536.950378 501.137939,531.269653 
	C501.174164,520.604004 501.147125,509.938141 501.143677,499.272369 
	C501.138580,483.607025 501.007690,467.940155 501.199066,452.277222 
	C501.257202,447.520569 499.544861,445.618927 494.793762,445.786926 
	C491.662506,445.897644 488.507202,445.261932 485.359802,444.994049 
	C479.025635,444.454803 477.957062,445.371796 477.944885,451.635773 
	C477.909241,469.967468 477.940338,488.299286 477.904938,506.630981 
	C477.886932,515.954041 477.402435,516.424866 468.207977,515.004333 
	C448.323914,511.932343 429.354065,514.080750 411.731323,524.460022 
	C410.748352,525.038940 409.568787,525.284058 408.110443,525.657837 
z"/>
<path fill="#955769" opacity="1.000000" stroke="none" 
	d="
M623.251587,250.914948 
	C630.808105,250.947601 638.277588,250.930664 645.742676,250.738983 
	C648.492798,250.668381 649.614624,251.670059 649.632202,254.464874 
	C649.822266,284.694122 661.516785,310.568695 679.644348,334.406158 
	C679.251831,335.013855 679.062012,335.125488 678.559875,335.075714 
	C646.288025,315.797485 629.026306,286.996857 622.876831,250.874741 
	C622.876831,250.874741 623.162903,250.796082 623.251587,250.914948 
M648.269287,304.197937 
	C656.569885,315.692780 664.605164,323.173431 670.009583,323.983459 
	C668.958923,321.951599 668.167419,320.158752 667.153992,318.501801 
	C657.022095,301.937134 650.724854,284.019836 648.338623,264.765320 
	C646.743530,251.894196 646.850586,251.880920 634.426880,251.899216 
	C626.600952,251.910736 625.235779,253.447266 627.492676,261.109406 
	C631.982117,276.351562 637.798462,291.015442 648.269287,304.197937 
z"/>
<path fill="#74BCBB" opacity="1.000000" stroke="none" 
	d="
M481.638062,662.928711 
	C476.056793,664.928345 470.205292,667.996582 464.075592,668.725586 
	C453.171753,670.022339 442.056580,670.579163 431.300690,667.008240 
	C430.261261,666.663086 429.304443,666.069153 428.161316,665.255737 
	C442.027832,668.169312 456.107697,669.406128 470.286346,666.056152 
	C473.977478,665.184082 477.592468,663.989685 481.638062,662.928711 
z"/>
<path fill="#74BCBB" opacity="1.000000" stroke="none" 
	d="
M494.253967,656.512817 
	C490.782593,658.566833 486.961975,660.714783 482.716309,662.848877 
	C486.162445,660.758911 490.033600,658.682861 494.253967,656.512817 
z"/>
<path fill="#74BCBB" opacity="1.000000" stroke="none" 
	d="
M499.700012,652.927979 
	C498.442474,654.097900 496.851288,655.345215 494.879822,656.542786 
	C496.121826,655.330444 497.744110,654.167908 499.700012,652.927979 
z"/>
<path fill="#74BCBB" opacity="1.000000" stroke="none" 
	d="
M505.284180,648.529175 
	C504.070007,649.853027 502.528748,651.297607 500.594360,652.745850 
	C501.786499,651.382935 503.371765,650.016479 505.284180,648.529175 
z"/>
<path fill="#74BCBB" opacity="1.000000" stroke="none" 
	d="
M509.775696,644.258545 
	C509.129578,645.306885 508.188416,646.468933 506.884949,647.617310 
	C507.508575,646.526611 508.494598,645.449402 509.775696,644.258545 
z"/>
<path fill="#74BCBB" opacity="1.000000" stroke="none" 
	d="
M427.376404,664.598999 
	C425.911560,664.394470 424.156158,663.931213 422.172913,663.146606 
	C423.658661,663.330261 425.372223,663.835266 427.376404,664.598999 
z"/>
<path fill="#74BCBB" opacity="1.000000" stroke="none" 
	d="
M421.513336,662.510254 
	C420.554382,662.834351 419.341553,662.893677 417.559265,662.793823 
	C416.989777,662.634644 416.831299,662.275696 416.854401,661.980896 
	C416.884857,661.489075 416.892242,661.292114 416.971924,661.020874 
	C417.044250,660.946533 417.187561,660.796692 417.187561,660.796692 
	C418.544861,661.279602 419.902191,661.762512 421.513336,662.510254 
z"/>
<path fill="#74BCBB" opacity="1.000000" stroke="none" 
	d="
M415.062134,660.853210 
	C415.073608,660.658386 415.085083,660.463562 415.067291,659.977417 
	C415.628113,659.890015 416.218170,660.093994 416.997894,660.547363 
	C417.187561,660.796692 417.044250,660.946533 416.760468,661.018250 
	C416.476685,661.089966 416.054230,661.126892 415.802673,661.071167 
	C415.388153,660.961365 415.225128,660.907288 415.062134,660.853210 
z"/>
<path fill="#74BCBB" opacity="1.000000" stroke="none" 
	d="
M506.471680,647.567871 
	C506.513367,647.782532 506.236115,648.100220 505.683105,648.582153 
	C505.655792,648.387878 505.904297,648.029358 506.471680,647.567871 
z"/>
<path fill="#4A767E" opacity="1.000000" stroke="none" 
	d="
M475.927856,422.807983 
	C475.647644,422.818726 475.433502,422.529480 475.197388,421.967682 
	C475.448273,421.966064 475.721130,422.237030 475.927856,422.807983 
z"/>
<path fill="#5ABFBB" opacity="1.000000" stroke="none" 
	d="
M678.872253,335.237122 
	C679.062012,335.125488 679.251831,335.013855 679.717346,334.720856 
	C680.127502,334.668945 680.261841,334.798401 680.489685,335.190826 
	C680.583252,335.453827 680.233032,335.779419 679.860840,335.827118 
	C679.254333,335.690216 679.048828,335.477631 678.872253,335.237122 
z"/>
<path fill="#0E8F8E" opacity="1.000000" stroke="none" 
	d="
M678.559875,335.075714 
	C679.048828,335.477631 679.254333,335.690216 679.681519,335.985229 
	C687.801270,347.056213 698.211304,355.107208 709.827881,361.777100 
	C721.616760,368.545929 734.323608,372.799225 747.923218,375.800415 
	C748.311646,397.657471 748.199036,419.477997 748.347778,441.296753 
	C748.380981,446.172211 746.505798,447.782776 741.805603,447.488464 
	C701.007751,444.934082 663.377747,433.166504 629.856445,409.309937 
	C628.907349,408.634460 627.966553,407.939514 626.969604,407.340668 
	C624.240662,405.701508 622.518982,406.144318 622.434204,409.670624 
	C622.394165,411.335449 622.403748,413.001648 622.404358,414.667236 
	C622.424255,471.469421 622.639160,528.272339 622.419312,585.073608 
	C622.129150,660.036194 586.509338,712.760559 519.347900,743.993774 
	C478.678711,762.906921 436.318909,763.389954 394.326599,747.884399 
	C380.874268,742.917175 368.507629,735.009583 355.273010,727.963745 
	C354.590881,727.308655 354.279968,727.137268 353.969086,726.965820 
	C353.969086,726.965820 354.012024,726.939819 354.025269,726.960205 
	C351.999939,724.396790 350.032166,721.753296 347.912140,719.238220 
	C318.147827,683.926392 305.830566,642.954163 309.076904,597.252014 
	C313.973877,528.311401 363.615753,468.511383 430.655396,449.909760 
	C444.554108,446.053253 458.600586,443.737732 473.489990,443.840057 
	C473.970581,464.169861 474.011597,484.481873 473.996918,504.793793 
	C473.992615,510.779266 472.964844,511.602966 467.231445,510.637054 
	C431.081848,504.546906 395.238953,521.493774 378.102814,553.732483 
	C362.157776,583.730408 367.457611,620.888184 391.181213,644.697876 
	C397.941864,651.483093 405.149353,657.531494 414.707916,660.798584 
	C415.225128,660.907288 415.388153,660.961365 415.865967,661.299438 
	C416.333649,661.874268 416.550476,662.105042 416.831299,662.275696 
	C416.831299,662.275696 416.989777,662.634644 417.106384,662.792725 
	C427.430176,677.456726 441.960358,685.375305 458.750549,689.265442 
	C496.213196,697.945068 536.709473,676.526978 551.391846,640.106323 
	C553.524658,632.630798 555.419983,625.806213 557.315369,618.981567 
	C557.841614,614.288025 558.367798,609.594421 558.905029,603.985962 
	C558.860474,595.716858 558.804871,588.362610 558.809937,580.542725 
	C558.831665,564.383423 558.792725,548.689697 558.822632,532.536011 
	C558.844849,527.714783 558.798218,523.353516 558.808533,518.578247 
	C558.827209,516.775269 558.788940,515.386292 558.820068,513.538696 
	C558.848022,509.055634 558.806519,505.031250 558.823242,500.541199 
	C558.838623,493.379425 558.795715,486.683258 558.815857,479.618011 
	C558.837341,478.504181 558.795654,477.759491 558.812988,476.566376 
	C558.843384,473.407928 558.814636,470.697845 558.852051,467.532379 
	C558.866211,463.389740 558.814209,459.702515 558.819519,455.587036 
	C558.840698,453.434113 558.804626,451.709473 558.834106,449.590942 
	C558.855164,448.137085 558.810547,447.077118 558.823120,445.550598 
	C558.837891,429.384460 558.795410,413.684845 558.821106,397.536774 
	C558.844360,394.060425 558.799438,391.032532 558.791504,387.670410 
	C558.803589,386.889191 558.778809,386.442230 558.821777,385.582794 
	C558.846130,383.782349 558.802917,382.394318 558.818604,380.558105 
	C558.839233,377.400330 558.800964,374.690735 558.830688,371.549988 
	C558.851990,369.086395 558.805298,367.053925 558.815918,364.568695 
	C558.835754,361.076080 558.798157,358.036285 558.829651,354.532471 
	C558.846313,346.381897 558.793884,338.695282 558.802002,330.543274 
	C558.827637,323.714020 558.792786,317.350128 558.820190,310.617249 
	C558.838684,309.504242 558.794983,308.760223 558.788452,307.679626 
	C558.801086,306.892883 558.776672,306.442749 558.823486,305.529358 
	C558.847961,298.384613 558.801208,291.703033 558.814087,284.555603 
	C558.835693,278.396301 558.797729,272.702881 558.828613,266.549438 
	C558.852783,262.062500 558.808044,258.035492 558.832520,253.648041 
	C559.015564,252.562378 559.129517,251.837204 559.691650,251.108871 
	C579.759644,251.073822 599.379578,251.041931 619.359375,251.054718 
	C620.440247,251.093582 621.161072,251.087784 621.881958,251.082001 
	C622.053772,251.076096 622.225647,251.070206 622.637207,250.969513 
	C629.026306,286.996857 646.288025,315.797485 678.559875,335.075714 
z"/>
<path fill="#5AC1BF" opacity="1.000000" stroke="none" 
	d="
M354.055328,727.251953 
	C354.279968,727.137268 354.590881,727.308655 355.070465,727.694702 
	C354.873322,727.785583 354.507446,727.661804 354.055328,727.251953 
z"/>
<path fill="#9E5468" opacity="1.000000" stroke="none" 
	d="
M405.078888,527.668457 
	C405.308777,527.134583 405.846344,526.608704 406.677002,526.054749 
	C406.442261,526.576538 405.914398,527.126465 405.078888,527.668457 
z"/>
<path fill="#5BC4C2" opacity="1.000000" stroke="none" 
	d="
M534.316223,601.187134 
	C534.001221,479.300842 534.017883,357.619202 534.402100,235.556259 
	C538.290161,236.120972 538.108948,238.807343 537.806274,241.578964 
	C537.094971,248.092514 536.581726,254.509552 542.558777,259.312531 
	C543.434570,260.016327 543.497253,261.702271 543.997253,262.908447 
	C547.335022,270.960175 544.318848,279.317780 545.233398,287.470184 
	C545.535034,290.159149 545.832031,294.383636 547.426697,295.127075 
	C554.361694,298.360199 552.047729,303.898987 552.048279,309.028473 
	C552.048523,311.170898 552.816406,313.324341 552.734009,315.453369 
	C552.561523,319.905792 555.330505,325.263245 549.129272,328.109985 
	C548.520874,328.389282 548.106201,329.892944 548.197571,330.765961 
	C548.866638,337.162720 547.672485,343.119720 544.572449,348.760223 
	C544.169678,349.492981 544.175659,350.973938 544.656982,351.582977 
	C547.528992,355.216858 546.306580,359.060303 545.828003,363.032776 
	C545.255920,367.782410 547.305298,372.766693 544.576233,377.375946 
	C544.399963,377.673645 544.843262,378.305298 544.924988,378.793854 
	C545.633911,383.029297 546.399353,387.257294 546.998169,391.508575 
	C547.416870,394.481018 547.600830,397.486511 547.945679,401.058258 
	C549.825012,399.417725 551.096069,398.308136 552.594604,397.000031 
	C558.515442,404.924042 553.223755,412.356079 552.815674,419.771515 
	C552.028870,417.355682 551.242126,414.939880 550.265686,411.941589 
	C546.650330,416.294281 546.858521,428.739807 549.826416,431.807678 
	C554.402527,436.537964 554.921814,439.898315 552.388550,446.075806 
	C551.919495,447.219788 551.771667,449.430176 552.422302,449.939911 
	C555.557983,452.396484 554.185608,455.171387 553.791565,458.125488 
	C553.281433,461.949768 553.400024,465.854248 553.147888,469.717651 
	C552.941833,472.875031 552.589233,476.022797 552.240295,479.845856 
	C558.955383,483.744873 551.349792,490.454010 553.712585,495.221680 
	C551.859497,496.573792 549.778381,497.285431 549.277222,498.599548 
	C547.259705,503.890533 545.781799,509.384644 544.007690,514.771851 
	C541.793152,521.496765 546.550964,527.145630 546.847412,533.535095 
	C547.006653,536.967407 548.636841,540.236145 552.556213,541.654480 
	C553.445984,541.976501 554.171265,543.666321 554.358826,544.825745 
	C554.751465,547.253845 555.436035,549.973022 554.731445,552.164612 
	C553.530701,555.899170 557.457214,562.732605 548.969055,562.703735 
	C548.322449,562.701477 547.494202,565.277954 547.049011,566.746277 
	C545.865967,570.647400 544.722534,574.569763 543.814514,578.541138 
	C543.366089,580.502197 543.102112,582.646973 543.403748,584.608887 
	C544.043945,588.773926 545.109070,592.873535 546.000000,597.000000 
	C543.079956,600.697266 539.830566,603.543152 534.316223,601.187134 
z"/>
<path fill="#59C4C3" opacity="1.000000" stroke="none" 
	d="
M546.344299,597.145020 
	C545.109070,592.873535 544.043945,588.773926 543.403748,584.608887 
	C543.102112,582.646973 543.366089,580.502197 543.814514,578.541138 
	C544.722534,574.569763 545.865967,570.647400 547.049011,566.746277 
	C547.494202,565.277954 548.322449,562.701477 548.969055,562.703735 
	C557.457214,562.732605 553.530701,555.899170 554.731445,552.164612 
	C555.436035,549.973022 554.751465,547.253845 554.358826,544.825745 
	C554.171265,543.666321 553.445984,541.976501 552.556213,541.654480 
	C548.636841,540.236145 547.006653,536.967407 546.847412,533.535095 
	C546.550964,527.145630 541.793152,521.496765 544.007690,514.771851 
	C545.781799,509.384644 547.259705,503.890533 549.277222,498.599548 
	C549.778381,497.285431 551.859497,496.573792 553.712585,495.221680 
	C551.349792,490.454010 558.955383,483.744873 552.240295,479.845856 
	C552.589233,476.022797 552.941833,472.875031 553.147888,469.717651 
	C553.400024,465.854248 553.281433,461.949768 553.791565,458.125488 
	C554.185608,455.171387 555.557983,452.396484 552.422302,449.939911 
	C551.771667,449.430176 551.919495,447.219788 552.388550,446.075806 
	C554.921814,439.898315 554.402527,436.537964 549.826416,431.807678 
	C546.858521,428.739807 546.650330,416.294281 550.265686,411.941589 
	C551.242126,414.939880 552.028870,417.355682 552.815674,419.771515 
	C553.223755,412.356079 558.515442,404.924042 552.594604,397.000031 
	C551.096069,398.308136 549.825012,399.417725 547.945679,401.058258 
	C547.600830,397.486511 547.416870,394.481018 546.998169,391.508575 
	C546.399353,387.257294 545.633911,383.029297 544.924988,378.793854 
	C544.843262,378.305298 544.399963,377.673645 544.576233,377.375946 
	C547.305298,372.766693 545.255920,367.782410 545.828003,363.032776 
	C546.306580,359.060303 547.528992,355.216858 544.656982,351.582977 
	C544.175659,350.973938 544.169678,349.492981 544.572449,348.760223 
	C547.672485,343.119720 548.866638,337.162720 548.197571,330.765961 
	C548.106201,329.892944 548.520874,328.389282 549.129272,328.109985 
	C555.330505,325.263245 552.561523,319.905792 552.734009,315.453369 
	C552.816406,313.324341 552.048523,311.170898 552.048279,309.028473 
	C552.047729,303.898987 554.361694,298.360199 547.426697,295.127075 
	C545.832031,294.383636 545.535034,290.159149 545.233398,287.470184 
	C544.318848,279.317780 547.335022,270.960175 543.997253,262.908447 
	C543.497253,261.702271 543.434570,260.016327 542.558777,259.312531 
	C536.581726,254.509552 537.094971,248.092514 537.806274,241.578964 
	C538.108948,238.807343 538.290161,236.120972 534.411682,235.087738 
	C534.050720,234.249207 534.047607,233.497910 534.326416,232.267059 
	C535.072083,231.188293 535.535767,230.589081 535.999512,229.989868 
	C537.430237,229.725891 538.861023,229.461929 540.773743,229.448654 
	C546.973511,234.854156 553.244263,234.640671 558.988647,229.095657 
	C570.678955,229.088226 582.369324,229.080811 594.456909,229.461700 
	C593.021057,230.566269 591.218689,231.800293 589.349670,231.911316 
	C580.069641,232.462494 570.767639,232.631851 561.482727,233.115540 
	C557.241089,233.336487 551.714966,237.570755 552.622009,240.272980 
	C553.443237,242.719727 556.316406,244.477737 558.557617,246.825180 
	C558.694885,247.682892 558.969177,249.397461 559.243469,251.112030 
	C559.129517,251.837204 559.015564,252.562378 558.511414,253.761902 
	C557.147583,256.193451 556.191406,258.159546 555.196655,260.105988 
	C553.166931,264.077820 554.432922,266.328583 558.759827,267.009430 
	C558.797729,272.702881 558.835693,278.396301 558.521057,284.732727 
	C557.505615,291.338440 556.731079,297.293274 556.306641,303.272949 
	C556.246704,304.117371 557.894775,305.083038 558.752197,305.992584 
	C558.776672,306.442749 558.801086,306.892883 558.546143,307.794128 
	C558.430542,309.158875 558.594238,310.072540 558.757935,310.986237 
	C558.792786,317.350128 558.827637,323.714020 558.468506,330.670319 
	C557.241882,336.283051 555.964294,341.284210 555.746399,346.331055 
	C555.619263,349.275757 553.401917,353.683228 558.760559,354.996460 
	C558.798157,358.036285 558.835754,361.076080 558.526367,364.745300 
	C558.373901,367.576843 558.568298,369.778992 558.762695,371.981140 
	C558.800964,374.690735 558.839233,377.400330 558.520264,380.655579 
	C555.162292,383.193481 555.823792,384.734222 558.754089,385.995239 
	C558.778809,386.442230 558.803589,386.889191 558.485596,387.763031 
	C554.656738,391.049194 554.815674,393.600128 558.752930,397.985229 
	C558.795410,413.684845 558.837891,429.384460 558.561646,445.687622 
	C558.418091,447.522369 558.593262,448.753571 558.768494,449.984802 
	C558.804626,451.709473 558.840698,453.434113 558.508423,455.740173 
	C554.944519,460.781616 555.148682,464.468872 558.785889,467.987793 
	C558.814636,470.697845 558.843384,473.407928 558.570496,476.680817 
	C558.430176,478.158142 558.591492,479.072632 558.752808,479.987122 
	C558.795715,486.683258 558.838623,493.379425 558.501953,500.655182 
	C551.779297,508.551880 551.919922,511.409088 558.750610,513.997314 
	C558.788940,515.386292 558.827209,516.775269 558.471558,518.642944 
	C552.897278,524.430054 553.151978,529.657410 558.753784,532.996033 
	C558.792725,548.689697 558.831665,564.383423 558.482544,580.664062 
	C557.397949,582.628235 556.747375,584.031311 555.992249,585.375671 
	C555.207275,586.773193 554.321167,588.113953 553.479309,589.479492 
	C552.663513,588.013794 551.673828,586.614868 551.077881,585.064636 
	C550.401733,583.305786 550.078125,581.411438 549.601196,579.575989 
	C549.042908,579.715393 548.484558,579.854736 547.926270,579.994080 
	C545.737366,584.315369 548.356018,587.626892 550.635620,591.223572 
	C552.129456,593.580566 552.903503,596.393677 554.000000,599.002441 
	C551.562866,598.431641 549.125732,597.860840 546.344299,597.145020 
M552.913147,362.695892 
	C552.947937,362.893036 552.982666,363.090210 553.017456,363.287354 
	C553.064636,363.093262 553.111755,362.899139 552.913147,362.695892 
z"/>
<path fill="#55C3C1" opacity="1.000000" stroke="none" 
	d="
M556.918213,619.055176 
	C555.419983,625.806213 553.524658,632.630798 551.443787,639.736023 
	C547.084961,636.485107 542.903381,632.963379 538.753235,629.404785 
	C538.398987,629.101013 538.362000,628.404785 537.997009,628.139282 
	C530.631165,622.781311 532.544495,615.966919 535.064087,609.126465 
	C535.453308,608.069641 536.505676,607.257080 537.251404,606.331604 
	C538.141663,607.172119 539.085083,607.965637 539.894043,608.878235 
	C540.184937,609.206421 540.308838,609.843872 540.243103,610.302002 
	C539.621460,614.634338 541.291931,616.544006 545.412476,618.842651 
	C549.748779,621.261597 552.797607,620.399170 556.918213,619.055176 
M538.086914,620.303955 
	C538.052124,620.106873 538.017334,619.909851 537.982544,619.712769 
	C537.935425,619.906799 537.888306,620.100769 538.086914,620.303955 
z"/>
<path fill="#55C3C1" opacity="1.000000" stroke="none" 
	d="
M554.150635,599.309631 
	C552.903503,596.393677 552.129456,593.580566 550.635620,591.223572 
	C548.356018,587.626892 545.737366,584.315369 547.926270,579.994080 
	C548.484558,579.854736 549.042908,579.715393 549.601196,579.575989 
	C550.078125,581.411438 550.401733,583.305786 551.077881,585.064636 
	C551.673828,586.614868 552.663513,588.013794 553.479309,589.479492 
	C554.321167,588.113953 555.207275,586.773193 555.992249,585.375671 
	C556.747375,584.031311 557.397949,582.628235 558.421875,581.129639 
	C558.804871,588.362610 558.860474,595.716858 558.850830,603.536377 
	C557.290833,602.539978 555.796082,601.078369 554.150635,599.309631 
z"/>
<path fill="#5BC4C2" opacity="1.000000" stroke="none" 
	d="
M550.655884,609.142700 
	C550.111816,607.156921 549.751404,605.443420 549.390930,603.729919 
	C550.459961,603.737366 552.260254,603.391296 552.465637,603.816284 
	C553.183411,605.300964 553.417297,607.044678 553.597595,608.715637 
	C553.611877,608.848083 551.801819,609.177246 550.655884,609.142700 
z"/>
<path fill="#55C3C1" opacity="1.000000" stroke="none" 
	d="
M559.691650,251.108871 
	C558.969177,249.397461 558.694885,247.682892 558.557617,246.825180 
	C556.316406,244.477737 553.443237,242.719727 552.622009,240.272980 
	C551.714966,237.570755 557.241089,233.336487 561.482727,233.115540 
	C570.767639,232.631851 580.069641,232.462494 589.349670,231.911316 
	C591.218689,231.800293 593.021057,230.566269 594.924988,229.478729 
	C601.658875,229.074921 608.328064,229.204575 614.982910,228.954056 
	C619.580688,228.780960 621.505310,230.638977 620.570435,235.684555 
	C619.267395,238.251465 617.611145,240.266754 617.518066,242.351791 
	C617.390564,245.210175 618.449158,248.121445 618.999451,251.010056 
	C599.379578,251.041931 579.759644,251.073822 559.691650,251.108871 
z"/>
<path fill="#5BC4C2" opacity="1.000000" stroke="none" 
	d="
M558.522644,229.074585 
	C553.244263,234.640671 546.973511,234.854156 541.132812,229.390717 
	C546.692139,229.072571 552.374390,229.063049 558.522644,229.074585 
z"/>
<path fill="#5BC4C2" opacity="1.000000" stroke="none" 
	d="
M619.359375,251.054718 
	C618.449158,248.121445 617.390564,245.210175 617.518066,242.351791 
	C617.611145,240.266754 619.267395,238.251465 620.555237,236.106400 
	C621.213013,240.749100 621.542297,245.490463 621.876831,250.656921 
	C621.161072,251.087784 620.440247,251.093582 619.359375,251.054718 
z"/>
<path fill="#5BC4C2" opacity="1.000000" stroke="none" 
	d="
M535.718506,230.089447 
	C535.535767,230.589081 535.072083,231.188293 534.334229,231.891556 
	C534.519165,231.393417 534.978333,230.791229 535.718506,230.089447 
z"/>
<path fill="#E04260" opacity="1.000000" stroke="none" 
	d="
M648.051453,303.914368 
	C637.798462,291.015442 631.982117,276.351562 627.492676,261.109406 
	C625.235779,253.447266 626.600952,251.910736 634.426880,251.899216 
	C646.850586,251.880920 646.743530,251.894196 648.338623,264.765320 
	C650.724854,284.019836 657.022095,301.937134 667.153992,318.501801 
	C668.167419,320.158752 668.958923,321.951599 670.009583,323.983459 
	C664.605164,323.173431 656.569885,315.692780 648.051453,303.914368 
z"/>
<path fill="#58C2BF" opacity="1.000000" stroke="none" 
	d="
M416.854401,661.980896 
	C416.550476,662.105042 416.333649,661.874268 416.117523,661.355103 
	C416.054230,661.126892 416.476685,661.089966 416.688141,661.092590 
	C416.892242,661.292114 416.884857,661.489075 416.854401,661.980896 
z"/>
<path fill="#55C3C1" opacity="1.000000" stroke="none" 
	d="
M558.829651,354.532471 
	C553.401917,353.683228 555.619263,349.275757 555.746399,346.331055 
	C555.964294,341.284210 557.241882,336.283051 558.408020,331.135681 
	C558.793884,338.695282 558.846313,346.381897 558.829651,354.532471 
z"/>
<path fill="#55C3C1" opacity="1.000000" stroke="none" 
	d="
M558.823486,305.529358 
	C557.894775,305.083038 556.246704,304.117371 556.306641,303.272949 
	C556.731079,297.293274 557.505615,291.338440 558.461548,285.198608 
	C558.801208,291.703033 558.847961,298.384613 558.823486,305.529358 
z"/>
<path fill="#55C3C1" opacity="1.000000" stroke="none" 
	d="
M558.822632,532.536011 
	C553.151978,529.657410 552.897278,524.430054 558.414673,519.057007 
	C558.798218,523.353516 558.844849,527.714783 558.822632,532.536011 
z"/>
<path fill="#55C3C1" opacity="1.000000" stroke="none" 
	d="
M558.820068,513.538696 
	C551.919922,511.409088 551.779297,508.551880 558.443726,501.120850 
	C558.806519,505.031250 558.848022,509.055634 558.820068,513.538696 
z"/>
<path fill="#55C3C1" opacity="1.000000" stroke="none" 
	d="
M558.828613,266.549438 
	C554.432922,266.328583 553.166931,264.077820 555.196655,260.105988 
	C556.191406,258.159546 557.147583,256.193451 558.442261,254.122375 
	C558.808044,258.035492 558.852783,262.062500 558.828613,266.549438 
z"/>
<path fill="#55C3C1" opacity="1.000000" stroke="none" 
	d="
M558.852051,467.532379 
	C555.148682,464.468872 554.944519,460.781616 558.451111,456.168396 
	C558.814209,459.702515 558.866211,463.389740 558.852051,467.532379 
z"/>
<path fill="#55C3C1" opacity="1.000000" stroke="none" 
	d="
M558.821106,397.536774 
	C554.815674,393.600128 554.656738,391.049194 558.448669,388.097260 
	C558.799438,391.032532 558.844360,394.060425 558.821106,397.536774 
z"/>
<path fill="#55C3C1" opacity="1.000000" stroke="none" 
	d="
M558.830688,371.549988 
	C558.568298,369.778992 558.373901,367.576843 558.468994,365.198090 
	C558.805298,367.053925 558.851990,369.086395 558.830688,371.549988 
z"/>
<path fill="#55C3C1" opacity="1.000000" stroke="none" 
	d="
M558.821777,385.582794 
	C555.823792,384.734222 555.162292,383.193481 558.461304,381.103760 
	C558.802917,382.394318 558.846130,383.782349 558.821777,385.582794 
z"/>
<path fill="#55C3C1" opacity="1.000000" stroke="none" 
	d="
M558.834106,449.590942 
	C558.593262,448.753571 558.418091,447.522369 558.504395,446.154144 
	C558.810547,447.077118 558.855164,448.137085 558.834106,449.590942 
z"/>
<path fill="#55C3C1" opacity="1.000000" stroke="none" 
	d="
M558.815918,479.618011 
	C558.591492,479.072632 558.430176,478.158142 558.511475,477.129211 
	C558.795654,477.759491 558.837341,478.504181 558.815918,479.618011 
z"/>
<path fill="#55C3C1" opacity="1.000000" stroke="none" 
	d="
M558.820190,310.617249 
	C558.594238,310.072540 558.430542,309.158875 558.509094,308.130707 
	C558.794983,308.760223 558.838684,309.504242 558.820190,310.617249 
z"/>
<path fill="#5BC4C2" opacity="1.000000" stroke="none" 
	d="
M553.036011,362.700470 
	C553.111755,362.899139 553.064636,363.093262 553.017456,363.287354 
	C552.982666,363.090210 552.947937,362.893036 553.036011,362.700470 
z"/>
<path fill="#58C2BF" opacity="1.000000" stroke="none" 
	d="
M537.963989,620.299377 
	C537.888306,620.100769 537.935425,619.906799 537.982544,619.712769 
	C538.017334,619.909851 538.052124,620.106873 537.963989,620.299377 
z"/>
</svg>